<svg xmlns="http://www.w3.org/2000/svg" width="69.881" height="69.915" viewBox="0 0 69.881 69.915">
  <g id="Group_4" data-name="Group 4" transform="translate(-434.791 -61.036)">
    <path id="Path_42" data-name="Path 42" d="M6101.063,5665h13.755a28.128,28.128,0,0,1,28.063,28.063v13.755a28.158,28.158,0,0,1-28.063,28.1h-13.755a28.157,28.157,0,0,1-28.062-28.1v-13.755A28.127,28.127,0,0,1,6101.063,5665Z" transform="translate(-5638.209 -5603.964)" fill="#e30438" fill-rule="evenodd"/>
    <path id="Path_43" data-name="Path 43" d="M6274,7281l5.7,5.356A32.216,32.216,0,0,1,6274,7281Z" transform="translate(-5832.262 -7164.114)" fill="#ff8d00" fill-rule="evenodd"/>
    <path id="Path_44" data-name="Path 44" d="M6242.05,7236.154l-5.7-5.356c-.449-.588-.9-1.175-1.348-1.8l8.917,8.4A21.814,21.814,0,0,1,6242.05,7236.154Z" transform="translate(-5794.611 -7113.912)" fill="#ff8b00" fill-rule="evenodd"/>
    <path id="Path_45" data-name="Path 45" d="M6218.815,7200.711l-8.917-8.4c-.311-.415-.622-.864-.9-1.313l11.2,10.541C6219.748,7201.264,6219.265,7200.987,6218.815,7200.711Z" transform="translate(-5769.51 -7077.225)" fill="#ff8900" fill-rule="evenodd"/>
    <path id="Path_46" data-name="Path 46" d="M6200.889,7168.716l-11.2-10.541c-.242-.38-.484-.795-.691-1.175l13.1,12.338C6201.684,7169.13,6201.3,7168.923,6200.889,7168.716Z" transform="translate(-5750.201 -7044.4)" fill="#ff8700" fill-rule="evenodd"/>
    <path id="Path_47" data-name="Path 47" d="M6186.651,7141.339l-13.1-12.338c-.208-.346-.38-.657-.553-1l14.688,13.824C6187.342,7141.65,6187,7141.513,6186.651,7141.339Z" transform="translate(-5734.754 -7016.401)" fill="#ff8400" fill-rule="evenodd"/>
    <path id="Path_48" data-name="Path 48" d="M6174.172,7114.792l-14.688-13.824c-.173-.346-.346-.657-.484-.968l16.14,15.206C6174.828,7115.068,6174.518,7114.93,6174.172,7114.792Z" transform="translate(-5721.237 -6989.37)" fill="#ff8200" fill-rule="evenodd"/>
    <path id="Path_49" data-name="Path 49" d="M6163.554,7091.07l-16.139-15.207c-.139-.276-.277-.587-.415-.864l17.453,16.416C6164.176,7091.313,6163.865,7091.174,6163.554,7091.07Z" transform="translate(-5709.652 -6965.234)" fill="#ff8000" fill-rule="evenodd"/>
    <path id="Path_50" data-name="Path 50" d="M6154.8,7068.245l-17.453-16.416A8.362,8.362,0,0,0,6137,7051l18.662,17.556C6155.386,7068.453,6155.109,7068.349,6154.8,7068.245Z" transform="translate(-5699.998 -6942.063)" fill="#ff7e00" fill-rule="evenodd"/>
    <path id="Path_51" data-name="Path 51" d="M6146.974,7046.351l-18.662-17.557c-.1-.276-.208-.518-.312-.794l19.769,18.593C6147.492,7046.524,6147.25,7046.42,6146.974,7046.351Z" transform="translate(-5691.309 -6919.857)" fill="#ff7b00" fill-rule="evenodd"/>
    <path id="Path_52" data-name="Path 52" d="M6141.011,7025.354l-19.769-18.593c-.069-.242-.173-.484-.242-.76l20.771,19.6A6.477,6.477,0,0,0,6141.011,7025.354Z" transform="translate(-5684.551 -6898.619)" fill="#ff7900" fill-rule="evenodd"/>
    <path id="Path_53" data-name="Path 53" d="M6135.013,7005.321l-20.771-19.6A5.937,5.937,0,0,1,6114,6985l21.738,20.494A5.429,5.429,0,0,0,6135.013,7005.321Z" transform="translate(-5677.793 -6878.344)" fill="#f70" fill-rule="evenodd"/>
    <path id="Path_54" data-name="Path 54" d="M6129.945,6986.185l-21.738-20.494A2.294,2.294,0,0,1,6108,6965l22.671,21.358C6130.43,6986.289,6130.188,6986.254,6129.945,6986.185Z" transform="translate(-5672 -6859.035)" fill="#ff7500" fill-rule="evenodd"/>
    <path id="Path_55" data-name="Path 55" d="M6124.879,6968.015l-22.672-21.358c-.069-.207-.138-.449-.207-.656l23.57,22.153C6125.328,6968.118,6125.121,6968.049,6124.879,6968.015Z" transform="translate(-5666.207 -6840.692)" fill="#ff7200" fill-rule="evenodd"/>
    <path id="Path_56" data-name="Path 56" d="M6120.743,6949.81l-23.57-22.153c-.069-.242-.1-.449-.173-.656l24.4,22.947C6121.192,6949.913,6120.95,6949.844,6120.743,6949.81Z" transform="translate(-5661.38 -6822.349)" fill="#ff7000" fill-rule="evenodd"/>
    <path id="Path_57" data-name="Path 57" d="M6117.538,6931.6l-24.4-22.948c-.034-.207-.1-.415-.138-.656l25.194,23.708C6117.953,6931.673,6117.745,6931.639,6117.538,6931.6Z" transform="translate(-5657.519 -6804.006)" fill="#ff6e00" fill-rule="evenodd"/>
    <path id="Path_58" data-name="Path 58" d="M6114.333,6915.295l-25.194-23.708A4.681,4.681,0,0,0,6089,6891l25.954,24.365A3.85,3.85,0,0,1,6114.333,6915.295Z" transform="translate(-5653.656 -6787.592)" fill="#ff6b00" fill-rule="evenodd"/>
    <path id="Path_59" data-name="Path 59" d="M6112.059,6897.986l-25.955-24.364q-.051-.311-.1-.622l26.646,25.091C6112.438,6898.056,6112.231,6898.021,6112.059,6897.986Z" transform="translate(-5650.76 -6770.215)" fill="#ff6900" fill-rule="evenodd"/>
    <path id="Path_60" data-name="Path 60" d="M6109.749,6881.678l-26.646-25.09c-.034-.208-.069-.38-.1-.587l27.337,25.712C6110.163,6881.712,6109.956,6881.678,6109.749,6881.678Z" transform="translate(-5647.863 -6753.803)" fill="#ff6700" fill-rule="evenodd"/>
    <path id="Path_61" data-name="Path 61" d="M6108.406,6865.3l-27.337-25.712c-.035-.208-.035-.381-.069-.588l27.994,26.369C6108.821,6865.335,6108.613,6865.335,6108.406,6865.3Z" transform="translate(-5645.934 -6737.39)" fill="#ff6500" fill-rule="evenodd"/>
    <path id="Path_62" data-name="Path 62" d="M6107.063,6849.921l-27.993-26.369A3.024,3.024,0,0,1,6079,6823l28.65,26.957C6107.443,6849.956,6107.271,6849.921,6107.063,6849.921Z" transform="translate(-5644.002 -6721.941)" fill="#ff6200" fill-rule="evenodd"/>
    <path id="Path_63" data-name="Path 63" d="M6105.72,6834.51l-28.65-26.957c-.035-.173-.035-.38-.069-.553l29.272,27.544A3.154,3.154,0,0,0,6105.72,6834.51Z" transform="translate(-5642.071 -6706.496)" fill="#ff6000" fill-rule="evenodd"/>
    <path id="Path_64" data-name="Path 64" d="M6105.307,6819.1l-29.272-27.544c0-.173-.034-.38-.034-.553l29.86,28.1Z" transform="translate(-5641.105 -6691.049)" fill="#ff5e00" fill-rule="evenodd"/>
    <path id="Path_65" data-name="Path 65" d="M6104.895,6804.616l-29.86-28.1A2.609,2.609,0,0,1,6075,6776l30.413,28.616Z" transform="translate(-5640.141 -6676.567)" fill="#ff5c00" fill-rule="evenodd"/>
    <path id="Path_66" data-name="Path 66" d="M6104.447,6790.134l-30.413-28.616A2.641,2.641,0,0,1,6074,6761l30.966,29.134h-.519Z" transform="translate(-5639.176 -6662.086)" fill="#ff5900" fill-rule="evenodd"/>
    <path id="Path_67" data-name="Path 67" d="M6104,6775.651l-30.965-29.134c0-.173-.035-.346-.035-.519l31.553,29.652Z" transform="translate(-5638.209 -6647.604)" fill="#ff5700" fill-rule="evenodd"/>
    <path id="Path_68" data-name="Path 68" d="M6104.553,6761.171,6073,6731.519V6731l32.071,30.171Z" transform="translate(-5638.209 -6633.123)" fill="#f50" fill-rule="evenodd"/>
    <path id="Path_69" data-name="Path 69" d="M6105.071,6746.689,6073,6716.518V6716l32.59,30.689Z" transform="translate(-5638.209 -6618.641)" fill="#ff5300" fill-rule="evenodd"/>
    <path id="Path_70" data-name="Path 70" d="M6105.59,6733.173,6073,6702.483V6702l33.143,31.173Z" transform="translate(-5638.209 -6605.125)" fill="#ff5000" fill-rule="evenodd"/>
    <path id="Path_71" data-name="Path 71" d="M6106.143,6719.657,6073,6688.483V6688l33.662,31.657Z" transform="translate(-5638.209 -6591.608)" fill="#ff4e00" fill-rule="evenodd"/>
    <path id="Path_72" data-name="Path 72" d="M6106.662,6705.175,6073,6673.519V6673l34.18,32.175Z" transform="translate(-5638.209 -6577.127)" fill="#ff4c00" fill-rule="evenodd"/>
    <path id="Path_73" data-name="Path 73" d="M6107.18,6691.659,6073,6659.483V6659l34.733,32.659Z" transform="translate(-5638.209 -6563.611)" fill="#ff4a00" fill-rule="evenodd"/>
    <path id="Path_74" data-name="Path 74" d="M6107.733,6677.178,6073,6644.518V6644l35.251,33.178Z" transform="translate(-5638.209 -6549.129)" fill="#ff4700" fill-rule="evenodd"/>
    <path id="Path_75" data-name="Path 75" d="M6108.251,6663.661,6073,6630.483V6630l35.77,33.661Z" transform="translate(-5638.209 -6535.613)" fill="#ff4500" fill-rule="evenodd"/>
    <path id="Path_76" data-name="Path 76" d="M6108.77,6650.146,6073,6616.483V6616l36.322,34.146Z" transform="translate(-5638.209 -6522.098)" fill="#ff4300" fill-rule="evenodd"/>
    <path id="Path_77" data-name="Path 77" d="M6109.322,6635.664,6073,6601.519V6601l36.841,34.664h-.519Z" transform="translate(-5638.209 -6507.615)" fill="#ff4000" fill-rule="evenodd"/>
    <path id="Path_78" data-name="Path 78" d="M6109.841,6622.147,6073,6587.483V6587l37.359,35.147Z" transform="translate(-5638.209 -6494.1)" fill="#ff3e00" fill-rule="evenodd"/>
    <path id="Path_79" data-name="Path 79" d="M6110.359,6607.666,6073,6572.519V6572l37.843,35.632A2.148,2.148,0,0,1,6110.359,6607.666Z" transform="translate(-5638.209 -6479.617)" fill="#ff3c00" fill-rule="evenodd"/>
    <path id="Path_80" data-name="Path 80" d="M6110.843,6594.115,6073,6558.483V6558l38.361,36.115Z" transform="translate(-5638.209 -6466.102)" fill="#ff3a00" fill-rule="evenodd"/>
    <path id="Path_81" data-name="Path 81" d="M6111.361,6580.6,6073,6544.483V6544l38.846,36.564A2.282,2.282,0,0,0,6111.361,6580.6Z" transform="translate(-5638.209 -6452.584)" fill="#ff3700" fill-rule="evenodd"/>
    <path id="Path_82" data-name="Path 82" d="M6111.846,6566.083,6073,6529.518V6529l39.33,37.014C6112.191,6566.048,6112.019,6566.048,6111.846,6566.083Z" transform="translate(-5638.209 -6438.104)" fill="#ff3500" fill-rule="evenodd"/>
    <path id="Path_83" data-name="Path 83" d="M6112.33,6552.5,6073,6515.483a2.44,2.44,0,0,1,.035-.483l39.779,37.463C6112.641,6552.463,6112.5,6552.5,6112.33,6552.5Z" transform="translate(-5638.209 -6424.588)" fill="#f30" fill-rule="evenodd"/>
    <path id="Path_84" data-name="Path 84" d="M6113.778,6538.946,6074,6501.483V6501l40.263,37.877C6114.09,6538.912,6113.951,6538.912,6113.778,6538.946Z" transform="translate(-5639.176 -6411.071)" fill="#ff3100" fill-rule="evenodd"/>
    <path id="Path_85" data-name="Path 85" d="M6114.263,6526.327,6074,6488.449c0-.139.034-.312.034-.449l40.678,38.292C6114.573,6526.292,6114.4,6526.327,6114.263,6526.327Z" transform="translate(-5639.176 -6398.521)" fill="#ff2e00" fill-rule="evenodd"/>
    <path id="Path_86" data-name="Path 86" d="M6115.677,6512.776,6075,6474.483c0-.173.035-.311.035-.483l41.092,38.707A1.988,1.988,0,0,0,6115.677,6512.776Z" transform="translate(-5640.141 -6385.004)" fill="#ff2c00" fill-rule="evenodd"/>
    <path id="Path_87" data-name="Path 87" d="M6117.092,6500.156,6076,6461.449c0-.139.034-.276.034-.449l41.507,39.053C6117.4,6500.087,6117.265,6500.122,6117.092,6500.156Z" transform="translate(-5641.105 -6372.453)" fill="#ff2a00" fill-rule="evenodd"/>
    <path id="Path_88" data-name="Path 88" d="M6118.506,6487.5,6077,6448.449c.034-.138.034-.312.069-.449l41.886,39.433A1.724,1.724,0,0,1,6118.506,6487.5Z" transform="translate(-5642.071 -6359.902)" fill="#ff2800" fill-rule="evenodd"/>
    <path id="Path_89" data-name="Path 89" d="M6120.887,6474.882,6079,6435.449c0-.138.035-.312.035-.449l42.3,39.813C6121.2,6474.848,6121.025,6474.848,6120.887,6474.882Z" transform="translate(-5644.002 -6347.352)" fill="#ff2500" fill-rule="evenodd"/>
    <path id="Path_90" data-name="Path 90" d="M6122.3,6462.263l-42.3-39.813c.034-.138.034-.276.069-.449l42.647,40.159Z" transform="translate(-5644.968 -6334.802)" fill="#ff2300" fill-rule="evenodd"/>
    <path id="Path_91" data-name="Path 91" d="M6124.647,6450.573,6082,6410.415c.034-.138.034-.277.069-.415l43.027,40.47C6124.958,6450.5,6124.786,6450.539,6124.647,6450.573Z" transform="translate(-5646.898 -6323.217)" fill="#ff2100" fill-rule="evenodd"/>
    <path id="Path_92" data-name="Path 92" d="M6127.027,6437.918,6084,6397.448c.035-.138.035-.311.069-.449l43.373,40.815Z" transform="translate(-5648.83 -6310.664)" fill="#ff1e00" fill-rule="evenodd"/>
    <path id="Path_93" data-name="Path 93" d="M6129.373,6426.229,6086,6385.415c.035-.138.035-.277.069-.415l43.718,41.126Z" transform="translate(-5650.76 -6299.08)" fill="#ff1c00" fill-rule="evenodd"/>
    <path id="Path_94" data-name="Path 94" d="M6131.719,6414.541,6088,6373.415l.1-.415,44.03,41.438Z" transform="translate(-5652.691 -6287.495)" fill="#ff1a00" fill-rule="evenodd"/>
    <path id="Path_95" data-name="Path 95" d="M6135.03,6402.852,6091,6361.415a1.724,1.724,0,0,1,.069-.415l44.375,41.748Z" transform="translate(-5655.588 -6275.91)" fill="#ff1800" fill-rule="evenodd"/>
    <path id="Path_96" data-name="Path 96" d="M6137.375,6391.163,6093,6349.415c.034-.138.069-.276.1-.415l44.651,42.025A1.237,1.237,0,0,0,6137.375,6391.163Z" transform="translate(-5657.519 -6264.324)" fill="#ff1500" fill-rule="evenodd"/>
    <path id="Path_97" data-name="Path 97" d="M6140.651,6379.44,6096,6337.415c.034-.138.069-.277.1-.415l44.963,42.3A1.974,1.974,0,0,1,6140.651,6379.44Z" transform="translate(-5660.415 -6252.738)" fill="#ff1300" fill-rule="evenodd"/>
    <path id="Path_98" data-name="Path 98" d="M6143.963,6368.682,6099,6326.38c.034-.138.069-.276.1-.38l45.239,42.578C6144.205,6368.612,6144.066,6368.646,6143.963,6368.682Z" transform="translate(-5663.312 -6242.119)" fill="#f10" fill-rule="evenodd"/>
    <path id="Path_99" data-name="Path 99" d="M6147.239,6356.993,6102,6314.415q.052-.208.1-.415l45.516,42.854A1.7,1.7,0,0,0,6147.239,6356.993Z" transform="translate(-5666.207 -6230.534)" fill="#ff0f00" fill-rule="evenodd"/>
    <path id="Path_100" data-name="Path 100" d="M6150.515,6346.234,6105,6303.38c.034-.139.069-.276.1-.38l45.792,43.1A2.685,2.685,0,0,0,6150.515,6346.234Z" transform="translate(-5669.104 -6219.914)" fill="#ff0c00" fill-rule="evenodd"/>
    <path id="Path_101" data-name="Path 101" d="M6153.792,6334.511l-45.792-43.1q.052-.208.1-.415l46.068,43.373A1.671,1.671,0,0,0,6153.792,6334.511Z" transform="translate(-5672 -6208.329)" fill="#ff0a00" fill-rule="evenodd"/>
    <path id="Path_102" data-name="Path 102" d="M6157.068,6323.753,6111,6280.38c.034-.1.1-.242.138-.38l46.31,43.58C6157.311,6323.649,6157.207,6323.684,6157.068,6323.753Z" transform="translate(-5674.896 -6197.709)" fill="#ff0800" fill-rule="evenodd"/>
    <path id="Path_103" data-name="Path 103" d="M6161.311,6312.96,6115,6269.38c.034-.1.069-.242.1-.38l46.587,43.822A2.63,2.63,0,0,1,6161.311,6312.96Z" transform="translate(-5678.758 -6187.09)" fill="#ff0600" fill-rule="evenodd"/>
    <path id="Path_104" data-name="Path 104" d="M6164.587,6302.2,6118,6258.38a1.237,1.237,0,0,0,.138-.38l46.794,44.064C6164.829,6302.1,6164.69,6302.167,6164.587,6302.2Z" transform="translate(-5681.654 -6176.47)" fill="#ff0300" fill-rule="evenodd"/>
    <path id="Path_105" data-name="Path 105" d="M6168.794,6292.41,6122,6248.345c.034-.1.1-.241.138-.345l47.037,44.236C6169.036,6292.306,6168.933,6292.341,6168.794,6292.41Z" transform="translate(-5685.516 -6166.814)" fill="#ff0100" fill-rule="evenodd"/>
    <path id="Path_106" data-name="Path 106" d="M6173.036,6265.2,6126,6220.968a7.962,7.962,0,0,1,.38-.968l47.555,44.79C6173.624,6264.928,6173.348,6265.066,6173.036,6265.2Z" transform="translate(-5689.378 -6139.783)" fill="#ff0100" fill-rule="evenodd"/>
    <path id="Path_107" data-name="Path 107" d="M6173.036,6281.617,6126,6237.38c.035-.138.1-.242.138-.38l47.244,44.444A3.249,3.249,0,0,0,6173.036,6281.617Z" transform="translate(-5689.378 -6156.195)" fill="#ff0100" fill-rule="evenodd"/>
    <path id="Path_108" data-name="Path 108" d="M6177.244,6270.824,6130,6226.38c.034-.139.1-.242.138-.38l47.451,44.686C6177.485,6270.721,6177.347,6270.79,6177.244,6270.824Z" transform="translate(-5693.24 -6145.575)" fill="#ff0101" fill-rule="evenodd"/>
    <path id="Path_109" data-name="Path 109" d="M6181.451,6261.031,6134,6216.346c.034-.1.1-.242.138-.346l47.658,44.859A1.642,1.642,0,0,0,6181.451,6261.031Z" transform="translate(-5697.102 -6135.921)" fill="#ff0102" fill-rule="evenodd"/>
    <path id="Path_110" data-name="Path 110" d="M6185.658,6251.2,6138,6206.345c.069-.1.1-.242.173-.345L6186,6251.031A3.235,3.235,0,0,0,6185.658,6251.2Z" transform="translate(-5700.963 -6126.266)" fill="#fe0103" fill-rule="evenodd"/>
    <path id="Path_111" data-name="Path 111" d="M6190.831,6240.411,6143,6195.38a1.708,1.708,0,0,1,.138-.381l48.039,45.205A2.963,2.963,0,0,1,6190.831,6240.411Z" transform="translate(-5705.791 -6115.646)" fill="#fe0105" fill-rule="evenodd"/>
    <path id="Path_112" data-name="Path 112" d="M6195.039,6230.55l-48.039-45.2c.034-.1.1-.208.138-.346l48.247,45.377A1.6,1.6,0,0,1,6195.039,6230.55Z" transform="translate(-5709.652 -6105.992)" fill="#fe0106" fill-rule="evenodd"/>
    <path id="Path_113" data-name="Path 113" d="M6199.245,6220.723,6151,6175.346a1.089,1.089,0,0,0,.173-.346l48.384,45.55A1.4,1.4,0,0,1,6199.245,6220.723Z" transform="translate(-5713.514 -6096.338)" fill="#fe0107" fill-rule="evenodd"/>
    <path id="Path_114" data-name="Path 114" d="M6204.384,6210.9,6156,6165.346a3.249,3.249,0,0,0,.173-.346l48.557,45.723A3.187,3.187,0,0,0,6204.384,6210.9Z" transform="translate(-5718.342 -6086.684)" fill="#fd0108" fill-rule="evenodd"/>
    <path id="Path_115" data-name="Path 115" d="M6209.557,6201.068,6161,6155.346a3.145,3.145,0,0,1,.173-.346l48.729,45.861A3.048,3.048,0,0,0,6209.557,6201.068Z" transform="translate(-5723.168 -6077.029)" fill="#fd0109" fill-rule="evenodd"/>
    <path id="Path_116" data-name="Path 116" d="M6214.729,6192.172,6166,6146.311a1.367,1.367,0,0,1,.173-.311l48.868,45.965Z" transform="translate(-5727.996 -6068.34)" fill="#fd010a" fill-rule="evenodd"/>
    <path id="Path_117" data-name="Path 117" d="M6219.868,6182.311,6171,6136.346a1.064,1.064,0,0,1,.173-.346l49.006,46.138A1.449,1.449,0,0,1,6219.868,6182.311Z" transform="translate(-5732.822 -6058.686)" fill="#fd010c" fill-rule="evenodd"/>
    <path id="Path_118" data-name="Path 118" d="M6225.006,6172.483,6176,6126.346a3.1,3.1,0,0,1,.173-.346l49.145,46.276Z" transform="translate(-5737.65 -6049.031)" fill="#fc010d" fill-rule="evenodd"/>
    <path id="Path_119" data-name="Path 119" d="M6230.145,6163.587,6181,6117.311c.069-.1.1-.207.173-.311l49.283,46.379Z" transform="translate(-5742.477 -6040.342)" fill="#fc010e" fill-rule="evenodd"/>
    <path id="Path_120" data-name="Path 120" d="M6235.283,6154.69,6186,6108.311l.207-.311,49.387,46.483Z" transform="translate(-5747.305 -6031.653)" fill="#fc010f" fill-rule="evenodd"/>
    <path id="Path_121" data-name="Path 121" d="M6241.387,6144.829,6192,6098.346a1.588,1.588,0,0,1,.173-.346l49.524,46.622Z" transform="translate(-5753.098 -6021.999)" fill="#fc0110" fill-rule="evenodd"/>
    <path id="Path_122" data-name="Path 122" d="M6246.525,6135.933,6197,6089.311l.208-.311,49.628,46.725Z" transform="translate(-5757.924 -6013.311)" fill="#fb0111" fill-rule="evenodd"/>
    <path id="Path_123" data-name="Path 123" d="M6252.628,6127.036,6203,6080.311a1.394,1.394,0,0,1,.173-.311l49.767,46.829Z" transform="translate(-5763.717 -6004.621)" fill="#fb0113" fill-rule="evenodd"/>
    <path id="Path_124" data-name="Path 124" d="M6257.767,6118.14,6208,6071.311l.207-.311,49.836,46.9A.925.925,0,0,0,6257.767,6118.14Z" transform="translate(-5768.544 -5995.932)" fill="#fb0114" fill-rule="evenodd"/>
    <path id="Path_125" data-name="Path 125" d="M6263.835,6109.209l-49.835-46.9.207-.311,49.939,47Z" transform="translate(-5774.336 -5987.243)" fill="#fb0115" fill-rule="evenodd"/>
    <path id="Path_126" data-name="Path 126" d="M6269.939,6100.313l-49.939-47,.207-.311,50.009,47.071C6270.112,6100.175,6270.009,6100.244,6269.939,6100.313Z" transform="translate(-5780.129 -5978.555)" fill="#fa0116" fill-rule="evenodd"/>
    <path id="Path_127" data-name="Path 127" d="M6276.009,6092.347,6226,6045.276a1.883,1.883,0,0,1,.208-.276l50.078,47.14A1.9,1.9,0,0,1,6276.009,6092.347Z" transform="translate(-5785.922 -5970.83)" fill="#fa0117" fill-rule="evenodd"/>
    <path id="Path_128" data-name="Path 128" d="M6282.078,6083.451,6232,6036.311l.208-.311,50.181,47.209A1.85,1.85,0,0,0,6282.078,6083.451Z" transform="translate(-5791.715 -5962.143)" fill="#fa0118" fill-rule="evenodd"/>
    <path id="Path_129" data-name="Path 129" d="M6288.181,6074.52,6238,6027.311l.208-.311,50.25,47.278A2,2,0,0,0,6288.181,6074.52Z" transform="translate(-5797.508 -5953.453)" fill="#fa0119" fill-rule="evenodd"/>
    <path id="Path_130" data-name="Path 130" d="M6294.25,6066.555,6244,6019.276a1.937,1.937,0,0,0,.208-.276l50.32,47.313C6294.423,6066.416,6294.32,6066.485,6294.25,6066.555Z" transform="translate(-5803.3 -5945.729)" fill="#f9011b" fill-rule="evenodd"/>
    <path id="Path_131" data-name="Path 131" d="M6300.32,6058.589,6250,6011.276c.1-.1.173-.207.242-.276l50.354,47.347C6300.492,6058.451,6300.389,6058.52,6300.32,6058.589Z" transform="translate(-5809.093 -5938.006)" fill="#f9011c" fill-rule="evenodd"/>
    <path id="Path_132" data-name="Path 132" d="M6307.354,6049.658,6257,6002.312l.207-.312,50.39,47.417A1.636,1.636,0,0,1,6307.354,6049.658Z" transform="translate(-5815.851 -5929.316)" fill="#f9011d" fill-rule="evenodd"/>
    <path id="Path_133" data-name="Path 133" d="M6313.389,6041.692,6263,5994.276c.069-.1.173-.173.242-.276l50.423,47.451A.92.92,0,0,1,6313.389,6041.692Z" transform="translate(-5821.644 -5921.594)" fill="#f9011e" fill-rule="evenodd"/>
    <path id="Path_134" data-name="Path 134" d="M6320.423,6033.728,6270,5986.276a1.727,1.727,0,0,1,.242-.276l50.458,47.485C6320.6,6033.554,6320.527,6033.658,6320.423,6033.728Z" transform="translate(-5828.401 -5913.869)" fill="#f8011f" fill-rule="evenodd"/>
    <path id="Path_135" data-name="Path 135" d="M6327.458,6025.762,6277,5978.276a1.918,1.918,0,0,1,.207-.276l50.493,47.521Z" transform="translate(-5835.159 -5906.146)" fill="#f80120" fill-rule="evenodd"/>
    <path id="Path_136" data-name="Path 136" d="M6333.492,6017.8,6283,5970.276c.1-.1.173-.207.242-.276l50.526,47.52Z" transform="translate(-5840.952 -5898.423)" fill="#f80122" fill-rule="evenodd"/>
    <path id="Path_137" data-name="Path 137" d="M6340.527,6009.8,6290,5962.276c.069-.1.173-.173.242-.276l50.526,47.555Z" transform="translate(-5847.71 -5890.699)" fill="#f80123" fill-rule="evenodd"/>
    <path id="Path_138" data-name="Path 138" d="M6347.526,6001.831,6297,5954.276c.069-.1.173-.173.242-.276l50.561,47.555Z" transform="translate(-5854.469 -5882.976)" fill="#f70124" fill-rule="evenodd"/>
    <path id="Path_139" data-name="Path 139" d="M6354.562,5993.831,6304,5946.276a2,2,0,0,0,.242-.276l50.562,47.589A1.6,1.6,0,0,0,6354.562,5993.831Z" transform="translate(-5861.227 -5875.252)" fill="#f70125" fill-rule="evenodd"/>
    <path id="Path_140" data-name="Path 140" d="M6361.562,5986.831,6311,5939.241a1.57,1.57,0,0,0,.242-.241l50.562,47.555C6361.734,5986.658,6361.631,5986.728,6361.562,5986.831Z" transform="translate(-5867.984 -5868.494)" fill="#f70126" fill-rule="evenodd"/>
    <path id="Path_141" data-name="Path 141" d="M6368.561,5978.831,6318,5931.276l.276-.276,50.527,47.555C6368.734,5978.658,6368.63,5978.728,6368.561,5978.831Z" transform="translate(-5874.742 -5860.771)" fill="#f70127" fill-rule="evenodd"/>
    <path id="Path_142" data-name="Path 142" d="M6376.527,5971.8,6326,5924.241l.242-.241,50.527,47.52A1.92,1.92,0,0,1,6376.527,5971.8Z" transform="translate(-5882.466 -5854.012)" fill="#f60128" fill-rule="evenodd"/>
    <path id="Path_143" data-name="Path 143" d="M6383.527,5963.8,6333,5916.276l.276-.276,50.493,47.521C6383.665,5963.624,6383.6,5963.728,6383.527,5963.8Z" transform="translate(-5889.225 -5846.289)" fill="#f6012a" fill-rule="evenodd"/>
    <path id="Path_144" data-name="Path 144" d="M6391.492,5956.762,6341,5909.241a1.586,1.586,0,0,0,.242-.241l50.492,47.485C6391.631,5956.589,6391.562,5956.692,6391.492,5956.762Z" transform="translate(-5896.947 -5839.531)" fill="#f6012b" fill-rule="evenodd"/>
    <path id="Path_145" data-name="Path 145" d="M6398.492,5949.728,6348,5902.242c.1-.069.173-.173.276-.242l50.423,47.451A1.937,1.937,0,0,1,6398.492,5949.728Z" transform="translate(-5903.705 -5832.773)" fill="#f6012c" fill-rule="evenodd"/>
    <path id="Path_146" data-name="Path 146" d="M6406.423,5942.693,6356,5895.242a2,2,0,0,1,.276-.242l50.389,47.416C6406.6,5942.521,6406.492,5942.589,6406.423,5942.693Z" transform="translate(-5911.43 -5826.015)" fill="#f5012d" fill-rule="evenodd"/>
    <path id="Path_147" data-name="Path 147" d="M6414.388,5935.658,6364,5888.242a1.617,1.617,0,0,1,.242-.242l50.354,47.382A1.9,1.9,0,0,0,6414.388,5935.658Z" transform="translate(-5919.152 -5819.257)" fill="#f5012e" fill-rule="evenodd"/>
    <path id="Path_148" data-name="Path 148" d="M6421.354,5928.623,6371,5881.241c.1-.1.208-.173.276-.242l50.32,47.313C6421.527,5928.416,6421.423,5928.52,6421.354,5928.623Z" transform="translate(-5925.91 -5812.498)" fill="#f5012f" fill-rule="evenodd"/>
    <path id="Path_149" data-name="Path 149" d="M6429.319,5921.554,6379,5874.242a1.971,1.971,0,0,0,.276-.242l50.25,47.278A1.8,1.8,0,0,1,6429.319,5921.554Z" transform="translate(-5933.634 -5805.74)" fill="#f50131" fill-rule="evenodd"/>
    <path id="Path_150" data-name="Path 150" d="M6437.25,5914.521,6387,5867.242a2,2,0,0,0,.276-.242l50.182,47.209Z" transform="translate(-5941.357 -5798.982)" fill="#f50132" fill-rule="evenodd"/>
    <path id="Path_151" data-name="Path 151" d="M6445.181,5908.416,6395,5861.207l.311-.207,50.078,47.14C6445.319,5908.243,6445.25,5908.313,6445.181,5908.416Z" transform="translate(-5949.082 -5793.189)" fill="#f40133" fill-rule="evenodd"/>
    <path id="Path_152" data-name="Path 152" d="M6454.078,5901.382,6404,5854.241a.932.932,0,0,1,.276-.241l50.009,47.071Z" transform="translate(-5957.771 -5786.432)" fill="#f40134" fill-rule="evenodd"/>
    <path id="Path_153" data-name="Path 153" d="M6462.009,5894.313,6412,5847.242a.934.934,0,0,0,.276-.242l49.939,47Z" transform="translate(-5965.494 -5779.674)" fill="#f40135" fill-rule="evenodd"/>
    <path id="Path_154" data-name="Path 154" d="M6469.939,5888.209l-49.939-47,.312-.207,49.835,46.9Z" transform="translate(-5973.217 -5773.881)" fill="#f40136" fill-rule="evenodd"/>
    <path id="Path_155" data-name="Path 155" d="M6478.836,5882.105l-49.836-46.9a1.946,1.946,0,0,0,.276-.207l49.767,46.794Z" transform="translate(-5981.906 -5768.088)" fill="#f30138" fill-rule="evenodd"/>
    <path id="Path_156" data-name="Path 156" d="M6486.767,5875.036,6437,5828.241c.1-.068.207-.172.311-.241l49.629,46.725A1.417,1.417,0,0,1,6486.767,5875.036Z" transform="translate(-5989.63 -5761.33)" fill="#f30139" fill-rule="evenodd"/>
    <path id="Path_157" data-name="Path 157" d="M6495.628,5868.933,6446,5822.207l.311-.207,49.525,46.622Z" transform="translate(-5998.318 -5755.537)" fill="#f3013a" fill-rule="evenodd"/>
    <path id="Path_158" data-name="Path 158" d="M6504.525,5862.829,6455,5816.207l.312-.207,49.42,46.518Z" transform="translate(-6007.008 -5749.745)" fill="#f3013b" fill-rule="evenodd"/>
    <path id="Path_159" data-name="Path 159" d="M6513.421,5856.726,6464,5810.207l.311-.207,49.283,46.38A1.083,1.083,0,0,0,6513.421,5856.726Z" transform="translate(-6015.697 -5743.952)" fill="#f2013c" fill-rule="evenodd"/>
    <path id="Path_160" data-name="Path 160" d="M6522.283,5850.587,6473,5804.207l.311-.207,49.144,46.275C6522.387,5850.38,6522.352,5850.483,6522.283,5850.587Z" transform="translate(-6024.386 -5738.16)" fill="#f2013d" fill-rule="evenodd"/>
    <path id="Path_161" data-name="Path 161" d="M6531.145,5844.483,6482,5798.208l.311-.208,49.006,46.138A1.633,1.633,0,0,1,6531.145,5844.483Z" transform="translate(-6033.074 -5732.367)" fill="#f2013e" fill-rule="evenodd"/>
    <path id="Path_162" data-name="Path 162" d="M6540.006,5839.311,6491,5793.173a1.414,1.414,0,0,0,.311-.173l48.868,46A1.38,1.38,0,0,1,6540.006,5839.311Z" transform="translate(-6041.764 -5727.54)" fill="#f20140" fill-rule="evenodd"/>
    <path id="Path_163" data-name="Path 163" d="M6548.868,5833.207l-48.868-46a2.963,2.963,0,0,1,.346-.207l48.7,45.861A3.235,3.235,0,0,1,6548.868,5833.207Z" transform="translate(-6050.453 -5721.747)" fill="#f10141" fill-rule="evenodd"/>
    <path id="Path_164" data-name="Path 164" d="M6558.7,5828.034l-48.7-45.861a1.378,1.378,0,0,1,.312-.173l48.557,45.688A1.656,1.656,0,0,1,6558.7,5828.034Z" transform="translate(-6060.107 -5716.92)" fill="#f10142" fill-rule="evenodd"/>
    <path id="Path_165" data-name="Path 165" d="M6567.557,5821.9,6519,5776.207a3.182,3.182,0,0,1,.346-.207l48.384,45.55C6567.66,5821.654,6567.626,5821.792,6567.557,5821.9Z" transform="translate(-6068.796 -5711.127)" fill="#f10143" fill-rule="evenodd"/>
    <path id="Path_166" data-name="Path 166" d="M6577.384,5816.723,6529,5771.172c.1-.069.207-.1.312-.172l48.245,45.377A1.669,1.669,0,0,0,6577.384,5816.723Z" transform="translate(-6078.45 -5706.301)" fill="#f10144" fill-rule="evenodd"/>
    <path id="Path_167" data-name="Path 167" d="M6586.246,5811.55,6538,5766.173a1.61,1.61,0,0,1,.346-.173l48.038,45.205C6586.35,5811.309,6586.28,5811.446,6586.246,5811.55Z" transform="translate(-6087.14 -5701.473)" fill="#f00145" fill-rule="evenodd"/>
    <path id="Path_168" data-name="Path 168" d="M6596.039,5806.377l-48.039-45.2a1.588,1.588,0,0,1,.346-.173l47.865,45.032A3.151,3.151,0,0,0,6596.039,5806.377Z" transform="translate(-6096.794 -5696.646)" fill="#f00147" fill-rule="evenodd"/>
    <path id="Path_169" data-name="Path 169" d="M6605.866,5801.2,6558,5756.172a1.608,1.608,0,0,1,.346-.172L6606,5800.824A1.7,1.7,0,0,0,6605.866,5801.2Z" transform="translate(-6106.448 -5691.818)" fill="#f00148" fill-rule="evenodd"/>
    <path id="Path_170" data-name="Path 170" d="M6615.658,5796,6568,5751.173a1.577,1.577,0,0,1,.346-.173l47.451,44.651C6615.763,5795.755,6615.693,5795.894,6615.658,5796Z" transform="translate(-6116.103 -5686.991)" fill="#f00149" fill-rule="evenodd"/>
    <path id="Path_171" data-name="Path 171" d="M6625.451,5790.824,6578,5746.172a1.608,1.608,0,0,1,.346-.172l47.244,44.444C6625.555,5790.582,6625.485,5790.686,6625.451,5790.824Z" transform="translate(-6125.757 -5682.164)" fill="#ef014a" fill-rule="evenodd"/>
    <path id="Path_172" data-name="Path 172" d="M6635.243,5785.617,6588,5741.173a3.158,3.158,0,0,0,.346-.173l47.037,44.271C6635.347,5785.375,6635.277,5785.514,6635.243,5785.617Z" transform="translate(-6135.41 -5677.337)" fill="#ef014b" fill-rule="evenodd"/>
    <path id="Path_173" data-name="Path 173" d="M6645.036,5781.41,6598,5737.138c.138-.034.242-.1.38-.138l46.794,44.029C6645.14,5781.133,6645.071,5781.271,6645.036,5781.41Z" transform="translate(-6145.066 -5673.475)" fill="#ef014c" fill-rule="evenodd"/>
    <path id="Path_174" data-name="Path 174" d="M6655.794,5776.2,6609,5732.173c.1-.069.242-.1.346-.173l46.587,43.822A1.677,1.677,0,0,0,6655.794,5776.2Z" transform="translate(-6155.686 -5668.648)" fill="#ef014d" fill-rule="evenodd"/>
    <path id="Path_175" data-name="Path 175" d="M6665.587,5771.961,6619,5728.139c.138-.035.276-.1.38-.139l46.311,43.581C6665.656,5771.719,6665.622,5771.822,6665.587,5771.961Z" transform="translate(-6165.34 -5664.786)" fill="#ee014f" fill-rule="evenodd"/>
    <path id="Path_176" data-name="Path 176" d="M6676.311,5767.718,6630,5724.138a1.67,1.67,0,0,1,.38-.138l46.069,43.338C6676.414,5767.441,6676.345,5767.58,6676.311,5767.718Z" transform="translate(-6175.959 -5660.924)" fill="#ee0150" fill-rule="evenodd"/>
    <path id="Path_177" data-name="Path 177" d="M6687.068,5762.511,6641,5719.173c.138-.069.242-.1.38-.173l45.792,43.131C6687.138,5762.234,6687.1,5762.373,6687.068,5762.511Z" transform="translate(-6186.58 -5656.098)" fill="#ee0151" fill-rule="evenodd"/>
    <path id="Path_178" data-name="Path 178" d="M6697.792,5758.27,6652,5715.138a1.689,1.689,0,0,0,.38-.138l45.515,42.854Q6697.844,5758.062,6697.792,5758.27Z" transform="translate(-6197.199 -5652.235)" fill="#ee0152" fill-rule="evenodd"/>
    <path id="Path_179" data-name="Path 179" d="M6708.516,5753.992,6663,5711.138a1.684,1.684,0,0,0,.38-.138l45.239,42.612C6708.585,5753.716,6708.55,5753.854,6708.516,5753.992Z" transform="translate(-6207.819 -5648.374)" fill="#ed0153" fill-rule="evenodd"/>
    <path id="Path_180" data-name="Path 180" d="M6719.239,5750.716,6674,5708.1c.138-.035.276-.069.38-.1l44.962,42.3C6719.309,5750.439,6719.274,5750.578,6719.239,5750.716Z" transform="translate(-6218.439 -5645.478)" fill="#ed0154" fill-rule="evenodd"/>
    <path id="Path_181" data-name="Path 181" d="M6729.963,5746.44l-44.963-42.3c.138-.034.276-.1.415-.138l44.652,42.025C6730.031,5746.163,6730,5746.3,6729.963,5746.44Z" transform="translate(-6229.059 -5641.615)" fill="#ed0156" fill-rule="evenodd"/>
    <path id="Path_182" data-name="Path 182" d="M6741.652,5743.129,6697,5701.1l.415-.1,44.34,41.714Z" transform="translate(-6240.645 -5638.72)" fill="#ed0157" fill-rule="evenodd"/>
    <path id="Path_183" data-name="Path 183" d="M6753.341,5738.852,6709,5697.138a1.248,1.248,0,0,1,.38-.138l44.064,41.438C6753.41,5738.576,6753.375,5738.714,6753.341,5738.852Z" transform="translate(-6252.229 -5634.857)" fill="#ec0158" fill-rule="evenodd"/>
    <path id="Path_184" data-name="Path 184" d="M6764.064,5735.541,6720,5694.1l.415-.1,43.719,41.126A1.728,1.728,0,0,0,6764.064,5735.541Z" transform="translate(-6262.85 -5631.961)" fill="#ec0159" fill-rule="evenodd"/>
    <path id="Path_185" data-name="Path 185" d="M6775.719,5732.229,6732,5691.1l.415-.1,43.373,40.815C6775.753,5731.954,6775.753,5732.092,6775.719,5732.229Z" transform="translate(-6274.435 -5629.064)" fill="#ec015a" fill-rule="evenodd"/>
    <path id="Path_186" data-name="Path 186" d="M6787.373,5728.919,6744,5688.1l.415-.1,43.027,40.47A1.77,1.77,0,0,1,6787.373,5728.919Z" transform="translate(-6286.02 -5626.169)" fill="#ec015b" fill-rule="evenodd"/>
    <path id="Path_187" data-name="Path 187" d="M6799.027,5725.573,6756,5685.1c.138-.035.312-.069.449-.1l42.647,40.159C6799.063,5725.3,6799.063,5725.435,6799.027,5725.573Z" transform="translate(-6297.605 -5623.272)" fill="#ec005d" fill-rule="evenodd"/>
    <path id="Path_188" data-name="Path 188" d="M6811.647,5723.228,6769,5683.069a1.727,1.727,0,0,1,.415-.069l42.3,39.778C6811.682,5722.917,6811.682,5723.09,6811.647,5723.228Z" transform="translate(-6310.156 -5621.342)" fill="#eb005e" fill-rule="evenodd"/>
    <path id="Path_189" data-name="Path 189" d="M6823.3,5719.882,6781,5680.1c.138-.034.311-.069.449-.1l41.887,39.433C6823.336,5719.571,6823.3,5719.744,6823.3,5719.882Z" transform="translate(-6321.74 -5618.445)" fill="#eb005f" fill-rule="evenodd"/>
    <path id="Path_190" data-name="Path 190" d="M6835.887,5717.5,6794,5678.069c.138-.035.276-.035.449-.069l41.506,39.053C6835.921,5717.191,6835.921,5717.364,6835.887,5717.5Z" transform="translate(-6334.292 -5616.515)" fill="#eb0060" fill-rule="evenodd"/>
    <path id="Path_191" data-name="Path 191" d="M6848.507,5715.122,6807,5676.069a1.746,1.746,0,0,1,.449-.069l41.093,38.673C6848.542,5714.811,6848.507,5714.983,6848.507,5715.122Z" transform="translate(-6346.843 -5614.584)" fill="#eb0061" fill-rule="evenodd"/>
    <path id="Path_192" data-name="Path 192" d="M6861.092,5712.742,6820,5674.069a2.021,2.021,0,0,1,.449-.069l40.677,38.258C6861.126,5712.431,6861.092,5712.569,6861.092,5712.742Z" transform="translate(-6359.394 -5612.652)" fill="#ea0062" fill-rule="evenodd"/>
    <path id="Path_193" data-name="Path 193" d="M6873.677,5710.327,6833,5672.069a1.988,1.988,0,0,1,.449-.069l40.263,37.878C6873.712,5710.016,6873.677,5710.188,6873.677,5710.327Z" transform="translate(-6371.944 -5610.722)" fill="#ea0063" fill-rule="evenodd"/>
    <path id="Path_194" data-name="Path 194" d="M6886.263,5707.946,6846,5670.069c.173-.035.312-.035.484-.069l39.813,37.463A2.117,2.117,0,0,0,6886.263,5707.946Z" transform="translate(-6384.494 -5608.791)" fill="#ea0065" fill-rule="evenodd"/>
    <path id="Path_195" data-name="Path 195" d="M6899.813,5706.5,6860,5669.034c.173,0,.312-.034.484-.034l39.329,37.014Z" transform="translate(-6398.011 -5607.825)" fill="#ea0066" fill-rule="evenodd"/>
    <path id="Path_196" data-name="Path 196" d="M6913.33,5705.048,6874,5668.034a2.151,2.151,0,0,1,.484-.034l38.846,36.564Z" transform="translate(-6411.527 -5606.859)" fill="#e90067" fill-rule="evenodd"/>
    <path id="Path_197" data-name="Path 197" d="M6926.846,5703.6,6888,5667.034a2.307,2.307,0,0,1,.484-.034l38.362,36.081v.518Z" transform="translate(-6425.043 -5605.895)" fill="#e90068" fill-rule="evenodd"/>
    <path id="Path_198" data-name="Path 198" d="M6940.361,5702.115,6902,5666.034a2.651,2.651,0,0,1,.519-.034l37.843,35.631Z" transform="translate(-6438.559 -5604.93)" fill="#e90069" fill-rule="evenodd"/>
    <path id="Path_199" data-name="Path 199" d="M6954.843,5700.666,6917,5665.034c.173,0,.311-.034.484-.034l37.359,35.147Z" transform="translate(-6453.041 -5603.964)" fill="#e9006a" fill-rule="evenodd"/>
    <path id="Path_200" data-name="Path 200" d="M6968.359,5700.147,6931,5665h.519l36.841,34.664Z" transform="translate(-6466.557 -5603.964)" fill="#e8006c" fill-rule="evenodd"/>
    <path id="Path_201" data-name="Path 201" d="M6982.841,5699.664,6946,5665h.553l36.288,34.18Z" transform="translate(-6481.039 -5603.964)" fill="#e8006d" fill-rule="evenodd"/>
    <path id="Path_202" data-name="Path 202" d="M6998.288,5699.18,6962,5665h.519l35.77,33.661Z" transform="translate(-6496.486 -5603.964)" fill="#e8006e" fill-rule="evenodd"/>
    <path id="Path_203" data-name="Path 203" d="M7012.77,5698.661,6977,5665h.519l35.251,33.178Z" transform="translate(-6510.967 -5603.964)" fill="#e8006f" fill-rule="evenodd"/>
    <path id="Path_204" data-name="Path 204" d="M7027.251,5698.178,6992,5665h.519l34.733,32.659Z" transform="translate(-6525.448 -5603.964)" fill="#e70070" fill-rule="evenodd"/>
    <path id="Path_205" data-name="Path 205" d="M7041.732,5697.659,7007,5665h.553l34.18,32.175Z" transform="translate(-6539.931 -5603.964)" fill="#e70071" fill-rule="evenodd"/>
    <path id="Path_206" data-name="Path 206" d="M7057.18,5697.175,7023,5665h.518l33.662,31.691Z" transform="translate(-6555.377 -5603.964)" fill="#e70072" fill-rule="evenodd"/>
    <path id="Path_207" data-name="Path 207" d="M7071.661,5696.691,7038,5665h.519l33.143,31.173Z" transform="translate(-6569.859 -5603.964)" fill="#e70074" fill-rule="evenodd"/>
    <path id="Path_208" data-name="Path 208" d="M7086.143,5696.173,7053,5665h.553l32.59,30.689Z" transform="translate(-6584.341 -5603.964)" fill="#e60075" fill-rule="evenodd"/>
    <path id="Path_209" data-name="Path 209" d="M7101.59,5695.689,7069,5665h.519l32.071,30.171v.519Z" transform="translate(-6599.787 -5603.964)" fill="#e60076" fill-rule="evenodd"/>
    <path id="Path_210" data-name="Path 210" d="M7116.072,5695.171,7084,5665h.519l31.554,29.687Z" transform="translate(-6614.27 -5603.964)" fill="#e60077" fill-rule="evenodd"/>
    <path id="Path_211" data-name="Path 211" d="M7130.553,5694.687,7099,5665h.553l30.966,29.169C7130.519,5694.341,7130.553,5694.515,7130.553,5694.687Z" transform="translate(-6628.751 -5603.964)" fill="#e60078" fill-rule="evenodd"/>
    <path id="Path_212" data-name="Path 212" d="M7145.965,5694.169,7115,5665h.519l30.413,28.616A2.967,2.967,0,0,1,7145.965,5694.169Z" transform="translate(-6644.197 -5603.964)" fill="#e50079" fill-rule="evenodd"/>
    <path id="Path_213" data-name="Path 213" d="M7160.413,5693.616,7130,5665h.553l29.826,28.1A2.6,2.6,0,0,1,7160.413,5693.616Z" transform="translate(-6658.68 -5603.964)" fill="#e5007b" fill-rule="evenodd"/>
    <path id="Path_214" data-name="Path 214" d="M7175.825,5693.1,7146,5665a2.648,2.648,0,0,1,.519.034l29.272,27.51C7175.791,5692.752,7175.825,5692.925,7175.825,5693.1Z" transform="translate(-6674.127 -5603.964)" fill="#e5007c" fill-rule="evenodd"/>
    <path id="Path_215" data-name="Path 215" d="M7190.272,5693.51,7161,5666h.553l28.65,26.957C7190.238,5693.164,7190.238,5693.337,7190.272,5693.51Z" transform="translate(-6688.608 -5604.93)" fill="#e5007d" fill-rule="evenodd"/>
    <path id="Path_216" data-name="Path 216" d="M7205.65,5692.957,7177,5666a3.391,3.391,0,0,0,.588.034l27.993,26.37A2.972,2.972,0,0,1,7205.65,5692.957Z" transform="translate(-6704.055 -5604.93)" fill="#e4007e" fill-rule="evenodd"/>
    <path id="Path_217" data-name="Path 217" d="M7221.994,5693.369,7194,5667c.173.034.38.034.587.069l27.338,25.713C7221.959,5692.989,7221.959,5693.162,7221.994,5693.369Z" transform="translate(-6720.468 -5605.895)" fill="#e4007f" fill-rule="evenodd"/>
    <path id="Path_218" data-name="Path 218" d="M7238.337,5694.712,7211,5669a3.845,3.845,0,0,1,.588.069l26.646,25.056C7238.268,5694.332,7238.3,5694.54,7238.337,5694.712Z" transform="translate(-6736.881 -5607.825)" fill="#e40080" fill-rule="evenodd"/>
    <path id="Path_219" data-name="Path 219" d="M7254.646,5696.056,7228,5671a3.744,3.744,0,0,1,.622.069l25.92,24.4C7254.577,5695.641,7254.611,5695.849,7254.646,5696.056Z" transform="translate(-6753.293 -5609.756)" fill="#e40082" fill-rule="evenodd"/>
    <path id="Path_220" data-name="Path 220" d="M7271.92,5697.4,7246,5673c.207.034.415.034.622.069l25.159,23.708A4.09,4.09,0,0,0,7271.92,5697.4Z" transform="translate(-6770.671 -5611.688)" fill="#e30083" fill-rule="evenodd"/>
    <path id="Path_221" data-name="Path 221" d="M7289.16,5698.708,7264,5675l.622.1,24.4,22.948C7289.057,5698.259,7289.125,5698.5,7289.16,5698.708Z" transform="translate(-6788.049 -5613.618)" fill="#e30084" fill-rule="evenodd"/>
    <path id="Path_222" data-name="Path 222" d="M7306.4,5700.948,7282,5678a5.506,5.506,0,0,0,.656.138l23.57,22.154C7306.3,5700.533,7306.33,5700.74,7306.4,5700.948Z" transform="translate(-6805.427 -5616.515)" fill="#e30085" fill-rule="evenodd"/>
    <path id="Path_223" data-name="Path 223" d="M7324.57,5704.153,7301,5682c.242.034.484.1.691.138l22.672,21.358C7324.432,5703.7,7324.5,5703.945,7324.57,5704.153Z" transform="translate(-6823.77 -5620.376)" fill="#e30086" fill-rule="evenodd"/>
    <path id="Path_224" data-name="Path 224" d="M7343.671,5707.358,7321,5686c.242.069.484.1.726.172l21.739,20.494A2.288,2.288,0,0,1,7343.671,5707.358Z" transform="translate(-6843.078 -5624.238)" fill="#e20087" fill-rule="evenodd"/>
    <path id="Path_225" data-name="Path 225" d="M7363.738,5711.494,7342,5691l.726.207,20.77,19.562A5.909,5.909,0,0,1,7363.738,5711.494Z" transform="translate(-6863.354 -5629.064)" fill="#e20088" fill-rule="evenodd"/>
    <path id="Path_226" data-name="Path 226" d="M7383.771,5716.561,7363,5697c.242.069.519.138.761.207l19.768,18.594C7383.6,5716.042,7383.7,5716.319,7383.771,5716.561Z" transform="translate(-6883.627 -5634.857)" fill="#e2008a" fill-rule="evenodd"/>
    <path id="Path_227" data-name="Path 227" d="M7404.769,5721.593,7385,5703c.276.1.553.173.795.276l18.662,17.522C7404.561,5721.075,7404.665,5721.317,7404.769,5721.593Z" transform="translate(-6904.867 -5640.65)" fill="#e2008b" fill-rule="evenodd"/>
    <path id="Path_228" data-name="Path 228" d="M7426.662,5728.521,7408,5711a8.193,8.193,0,0,1,.864.276l17.453,16.416A8.782,8.782,0,0,0,7426.662,5728.521Z" transform="translate(-6927.072 -5648.374)" fill="#e2008c" fill-rule="evenodd"/>
    <path id="Path_229" data-name="Path 229" d="M7450.453,5735.416,7433,5719c.276.1.587.242.9.346l16.14,15.206C7450.176,5734.828,7450.314,5735.14,7450.453,5735.416Z" transform="translate(-6951.208 -5656.098)" fill="#e1008d" fill-rule="evenodd"/>
    <path id="Path_230" data-name="Path 230" d="M7475.139,5744.207,7459,5729c.312.138.657.276.968.415l14.688,13.859C7474.828,5743.584,7475,5743.9,7475.139,5744.207Z" transform="translate(-6976.309 -5665.752)" fill="#e1008e" fill-rule="evenodd"/>
    <path id="Path_231" data-name="Path 231" d="M7501.688,5754.858,7487,5741l1.037.519,13.1,12.3C7501.342,5754.167,7501.515,5754.513,7501.688,5754.858Z" transform="translate(-7003.342 -5677.337)" fill="#e1008f" fill-rule="evenodd"/>
    <path id="Path_232" data-name="Path 232" d="M7530.1,5768.3,7517,5756a7.93,7.93,0,0,1,1.21.622l11.2,10.541C7529.649,5767.543,7529.891,5767.923,7530.1,5768.3Z" transform="translate(-7032.305 -5691.818)" fill="#e10091" fill-rule="evenodd"/>
    <path id="Path_233" data-name="Path 233" d="M7563.2,5784.541,7552,5774c.484.241.933.518,1.382.795l8.917,8.4A12.983,12.983,0,0,1,7563.2,5784.541Z" transform="translate(-7066.096 -5709.197)" fill="#e00092" fill-rule="evenodd"/>
    <path id="Path_234" data-name="Path 234" d="M7600.916,5805.4,7592,5797c.657.415,1.279.829,1.866,1.278l5.7,5.323C7600.017,5804.188,7600.466,5804.776,7600.916,5805.4Z" transform="translate(-7104.712 -5731.402)" fill="#e00093" fill-rule="evenodd"/>
    <path id="Path_235" data-name="Path 235" d="M7651.7,5839.322,7646,5834A30.792,30.792,0,0,1,7651.7,5839.322Z" transform="translate(-7156.847 -5767.123)" fill="#e00094" fill-rule="evenodd"/>
    <path id="Path_266" data-name="Path 266" d="M6643.15,6190h-11.612a9.558,9.558,0,0,0-9.538,9.573v11.612a9.557,9.557,0,0,0,9.538,9.539h11.612a9.557,9.557,0,0,0,9.539-9.539v-11.612a9.558,9.558,0,0,0-9.539-9.573Zm3.49,7.257a1.175,1.175,0,1,0-2.349,0,1.175,1.175,0,1,0,2.349,0Zm-9.3.519a7.6,7.6,0,0,0,0,15.206,7.461,7.461,0,0,0,5.356-2.246,7.552,7.552,0,0,0,0-10.749A7.432,7.432,0,0,0,6637.345,6197.776Zm0,12.58a5.014,5.014,0,1,1,3.525-1.486A4.991,4.991,0,0,1,6637.345,6210.356Zm12.718.829a6.756,6.756,0,0,1-2.039,4.873,6.9,6.9,0,0,1-4.873,2.039h-11.612a7.043,7.043,0,0,1-4.907-2.039,6.868,6.868,0,0,1-2-4.873v-11.612a6.889,6.889,0,0,1,2-4.907,7.04,7.04,0,0,1,4.907-2.04h11.612a6.894,6.894,0,0,1,4.873,2.04,6.776,6.776,0,0,1,2.039,4.907Z" transform="translate(-6168.236 -6110.82)" fill="#fefefe" fill-rule="evenodd"/>
  </g>
</svg>
