<svg xmlns="http://www.w3.org/2000/svg" width="69.915" height="69.915" viewBox="0 0 69.915 69.915">
  <g id="Group_3" data-name="Group 3" transform="translate(-300.907 -62.036)">
    <path id="Path_38" data-name="Path 38" d="M28.063,5665H41.818a28.157,28.157,0,0,1,28.1,28.063v13.755a28.187,28.187,0,0,1-28.1,28.1H28.063A28.18,28.18,0,0,1,0,5706.817v-13.755A28.15,28.15,0,0,1,28.063,5665Z" transform="translate(300.907 -5602.964)" fill="#3c9de8" fill-rule="evenodd"/>
    <path id="Path_39" data-name="Path 39" d="M30.551,5665H36.5a30.62,30.62,0,0,1,30.517,30.551v5.945A30.59,30.59,0,0,1,36.5,5732.012H30.551A30.62,30.62,0,0,1,0,5701.5v-5.945A30.65,30.65,0,0,1,30.551,5665Z" transform="translate(300.907 -5602.964)" fill="#50abf1" fill-rule="evenodd"/>
    <path id="Path_238" data-name="Path 238" d="M537,6296.19a18.817,18.817,0,0,0,28.858-15.9v-.761c.38-.311,2.7-2.177,3.249-3.386a14.412,14.412,0,0,1-3.732.967h0c.173-.1,2.557-1.728,2.868-3.663a20.99,20.99,0,0,1-3.18,1.348c-.311.1-.657.207-.968.311a6.55,6.55,0,0,0-4.838-2.108,6.623,6.623,0,0,0-6.6,6.6,6.994,6.994,0,0,0,.173,1.486,19.751,19.751,0,0,1-13.548-6.843s-3.145,4.32,1.9,8.743a6.827,6.827,0,0,1-2.868-.863,6.293,6.293,0,0,0,5.219,6.566,6.018,6.018,0,0,1-2.9.1,6.533,6.533,0,0,0,6.048,4.631A12.687,12.687,0,0,1,537,6296.19Z" transform="translate(-217.534 -6189.951)" fill="#fff" fill-rule="evenodd"/>
  </g>
</svg>
