<svg xmlns="http://www.w3.org/2000/svg" viewBox="0 0 1096 575" width="548" height="288">
	<style>
		tspan { white-space:pre }
		.shp0 { fill: #3f3d56 } 
		.shp1 { fill: #f9f9f9 } 
		.shp2 { opacity: 0.102;fill: #000000 } 
		.shp3 { opacity: 0.102;fill: #f9f9f9 } 
		.shp4 { fill: #000000 } 
		.shp5 { fill: #ff0000 } 
		.shp6 { fill: #fbbebe } 
	</style>
	<g id="Layer" style="opacity: 0.102">
		<path id="Layer" class="shp0" d="M479.42 377.02C473.13 377.02 468.04 370.36 468.04 362.12C468.04 353.88 473.13 347.22 479.42 347.22C485.71 347.22 490.8 353.88 490.8 362.12C490.8 370.36 485.71 377.02 479.42 377.02Z" />
		<path id="Layer" class="shp0" d="M488.43 298.37C488.82 297.68 489.17 296.97 489.47 296.23C489.77 295.5 490.03 294.74 490.23 293.97C490.43 293.2 490.58 292.42 490.67 291.64C490.77 290.85 490.82 290.05 490.81 289.26C490.81 281.03 485.71 274.36 479.42 274.36C473.13 274.36 468 281.05 468 289.28C467.99 290.07 468.04 290.87 468.14 291.66C468.23 292.44 468.38 293.22 468.58 293.99C468.78 294.76 469.04 295.52 469.34 296.25C469.64 296.99 469.99 297.7 470.38 298.39C469.6 299.77 469.01 301.25 468.61 302.79C468.2 304.33 468 305.91 468 307.5C468 309.08 468.2 310.66 468.61 312.2C469.01 313.74 469.6 315.22 470.38 316.6C469.6 317.98 469.01 319.46 468.61 321C468.2 322.54 468 324.12 468 325.71C468 327.29 468.2 328.87 468.61 330.41C469.01 331.95 469.6 333.43 470.38 334.81C469.98 335.5 469.64 336.21 469.33 336.95C469.03 337.68 468.78 338.44 468.58 339.21C468.38 339.97 468.23 340.76 468.13 341.54C468.04 342.33 467.99 343.13 468 343.92C468 352.14 473.1 358.82 479.38 358.82C485.66 358.82 490.77 352.14 490.77 343.92C490.78 343.13 490.73 342.33 490.64 341.54C490.54 340.76 490.39 339.97 490.19 339.21C489.99 338.44 489.74 337.68 489.44 336.95C489.13 336.21 488.79 335.5 488.39 334.81C489.17 333.43 489.76 331.95 490.16 330.41C490.57 328.87 490.77 327.29 490.77 325.71C490.77 324.12 490.57 322.54 490.16 321C489.76 319.46 489.17 317.98 488.39 316.6C489.17 315.22 489.76 313.74 490.16 312.2C490.57 310.66 490.77 309.08 490.77 307.5C490.77 305.91 490.57 304.33 490.16 302.79C489.76 301.25 489.17 299.77 488.39 298.39L488.43 298.37Z" />
		<path id="Layer" class="shp0" d="M479.42 285.97C473.13 285.97 468.04 279.31 468.04 271.07C468.04 262.83 473.13 256.17 479.42 256.17C485.71 256.17 490.8 262.83 490.8 271.07C490.8 279.31 485.71 285.97 479.42 285.97Z" />
		<path id="Layer" class="shp0" d="M479.42 267.76C473.13 267.76 468.04 261.1 468.04 252.86C468.04 244.62 473.13 237.96 479.42 237.96C485.71 237.96 490.8 244.62 490.8 252.86C490.8 261.1 485.71 267.76 479.42 267.76Z" />
		<path id="Layer" class="shp1" d="M436.82 128.23C436.43 127.74 436.05 127.24 435.68 126.73C435.31 126.22 434.94 125.71 434.59 125.19C434.24 124.66 433.89 124.14 433.56 123.61C433.22 123.07 432.9 122.53 432.58 121.99L462.48 117.08L430.14 117.32C428.6 113.95 427.4 110.43 426.57 106.82C425.73 103.21 425.27 99.53 425.19 95.82C425.1 92.12 425.39 88.42 426.06 84.77C426.72 81.12 427.75 77.56 429.14 74.12L472.53 96.63L432.53 67.21C440.05 53.99 452.74 44.52 467.55 41.06C482.36 37.61 497.94 40.5 510.52 49.03C523.11 57.56 531.56 70.96 533.84 86C536.12 101.03 532.02 116.33 522.53 128.21C523.14 128.98 523.72 129.76 524.28 130.57C524.85 131.37 525.39 132.18 525.91 133.01C526.43 133.84 526.92 134.69 527.4 135.54C527.87 136.4 528.32 137.27 528.75 138.15L489.92 158.37L531.31 144.48C532.76 148.76 533.67 153.2 534.02 157.71C534.38 162.21 534.17 166.74 533.4 171.19C532.64 175.65 531.32 179.99 529.49 184.12C527.65 188.24 525.31 192.13 522.52 195.68C535.43 212.09 537.83 234.43 528.71 253.21C519.59 271.99 500.55 283.91 479.67 283.91C458.79 283.91 439.75 271.99 430.63 253.21C421.51 234.43 423.91 212.09 436.82 195.68C433.07 190.91 430.14 185.54 428.15 179.81C426.16 174.07 425.15 168.04 425.15 161.97C425.15 155.9 426.16 149.87 428.15 144.13C430.14 138.4 433.07 133.03 436.82 128.26L436.82 128.23Z" />
		<path id="Layer" class="shp2" d="M534.19 161.94C534.19 164.97 533.95 168 533.45 170.99C532.95 173.98 532.2 176.92 531.2 179.78C530.21 182.65 528.98 185.42 527.53 188.08C526.07 190.74 524.4 193.27 522.52 195.65C535.43 212.06 537.83 234.4 528.71 253.18C519.59 271.96 500.55 283.88 479.67 283.88C458.79 283.88 439.75 271.96 430.63 253.18C421.51 234.4 423.91 212.06 436.82 195.65C429.51 186.37 534.19 155.82 534.19 161.94Z" />
	</g>
	<g id="Layer" style="opacity: 0.102">
		<path id="Layer" class="shp0" d="M612.28 341.39C607.57 341.39 603.77 336.41 603.77 330.26C603.77 324.11 607.57 319.13 612.28 319.13C616.99 319.13 620.79 324.11 620.79 330.26C620.79 336.41 616.99 341.39 612.28 341.39Z" />
		<path id="Layer" class="shp0" d="M619 282.63C619.29 282.12 619.55 281.58 619.78 281.03C620 280.48 620.19 279.92 620.34 279.35C620.49 278.77 620.6 278.19 620.67 277.6C620.74 277.02 620.78 276.42 620.77 275.83C620.77 269.68 616.96 264.69 612.27 264.69C607.58 264.69 603.76 269.69 603.76 275.83C603.75 276.42 603.79 277.02 603.86 277.6C603.93 278.19 604.04 278.78 604.19 279.35C604.34 279.92 604.53 280.49 604.76 281.03C604.98 281.58 605.24 282.12 605.54 282.63C604.96 283.66 604.51 284.77 604.21 285.92C603.91 287.07 603.76 288.25 603.76 289.44C603.76 290.62 603.91 291.8 604.21 292.95C604.51 294.1 604.96 295.21 605.54 296.24C604.96 297.27 604.51 298.38 604.21 299.53C603.91 300.68 603.76 301.86 603.76 303.05C603.76 304.23 603.91 305.41 604.21 306.56C604.51 307.71 604.96 308.82 605.54 309.85C605.24 310.36 604.98 310.9 604.76 311.45C604.53 311.99 604.34 312.56 604.19 313.13C604.04 313.7 603.93 314.29 603.86 314.88C603.79 315.46 603.75 316.06 603.76 316.65C603.76 322.8 607.57 327.79 612.27 327.79C616.97 327.79 620.77 322.79 620.77 316.65C620.78 316.06 620.74 315.46 620.67 314.88C620.6 314.29 620.49 313.71 620.34 313.13C620.19 312.56 620 312 619.78 311.45C619.55 310.9 619.29 310.36 619 309.85C619.58 308.81 620.02 307.71 620.32 306.56C620.61 305.41 620.77 304.23 620.77 303.05C620.77 301.86 620.61 300.68 620.32 299.53C620.02 298.38 619.58 297.28 619 296.24C619.58 295.2 620.02 294.1 620.32 292.95C620.61 291.8 620.77 290.62 620.77 289.44C620.77 288.25 620.61 287.07 620.32 285.92C620.02 284.77 619.58 283.67 619 282.63Z" />
		<path id="Layer" class="shp0" d="M612.28 273.35C607.57 273.35 603.77 268.37 603.77 262.22C603.77 256.07 607.57 251.09 612.28 251.09C616.99 251.09 620.79 256.07 620.79 262.22C620.79 268.37 616.99 273.35 612.28 273.35Z" />
		<path id="Layer" class="shp0" d="M612.28 259.74C607.57 259.74 603.77 254.76 603.77 248.61C603.77 242.46 607.57 237.48 612.28 237.48C616.99 237.48 620.79 242.46 620.79 248.61C620.79 254.76 616.99 259.74 612.28 259.74Z" />
		<path id="Layer" class="shp1" d="M580.44 155.48C580.15 155.11 579.86 154.74 579.58 154.36C579.31 153.98 579.04 153.6 578.77 153.21C578.51 152.82 578.25 152.43 578 152.03C577.75 151.63 577.51 151.23 577.27 150.82L599.62 147.15L575.45 147.33C574.29 144.81 573.4 142.19 572.77 139.49C572.15 136.79 571.8 134.03 571.73 131.27C571.67 128.5 571.88 125.73 572.37 123C572.87 120.28 573.64 117.61 574.67 115.04L607.1 131.87L577.19 109.87C582.84 100.06 592.32 93.05 603.36 90.51C614.39 87.97 625.98 90.14 635.35 96.49C644.73 102.84 651.03 112.8 652.76 123.99C654.5 135.18 651.49 146.58 644.48 155.47C644.93 156.05 645.37 156.63 645.79 157.23C646.21 157.83 646.61 158.44 647 159.06C647.39 159.68 647.76 160.31 648.12 160.95C648.47 161.59 648.81 162.24 649.13 162.9L620.13 177.97L651.06 167.59C652.14 170.79 652.82 174.11 653.09 177.47C653.35 180.84 653.19 184.23 652.62 187.55C652.05 190.88 651.07 194.12 649.7 197.21C648.33 200.29 646.58 203.2 644.49 205.85C654.15 218.11 655.96 234.81 649.14 248.85C642.33 262.89 628.1 271.8 612.49 271.8C596.88 271.8 582.65 262.89 575.84 248.85C569.02 234.81 570.83 218.11 580.49 205.85C577.68 202.28 575.5 198.28 574.01 193.99C572.53 189.7 571.77 185.2 571.77 180.66C571.77 176.12 572.53 171.62 574.01 167.33C575.5 163.04 577.68 159.04 580.49 155.47L580.44 155.48Z" />
		<path id="Layer" class="shp2" d="M653.2 180.67C653.2 182.93 653.02 185.2 652.64 187.43C652.27 189.66 651.71 191.86 650.97 194C650.23 196.14 649.31 198.22 648.22 200.2C647.13 202.19 645.88 204.08 644.48 205.86C654.14 218.12 655.95 234.82 649.13 248.86C642.32 262.9 628.09 271.81 612.48 271.81C596.87 271.81 582.64 262.9 575.83 248.86C569.01 234.82 570.82 218.12 580.48 205.86C575 198.93 653.2 176.1 653.2 180.67Z" />
	</g>
	<g id="Layer" style="opacity: 0.102">
		<path id="Layer" class="shp0" d="M1038.58 337.02C1032.29 337.02 1027.2 330.36 1027.2 322.12C1027.2 313.88 1032.29 307.22 1038.58 307.22C1044.87 307.22 1049.96 313.88 1049.96 322.12C1049.96 330.36 1044.87 337.02 1038.58 337.02Z" />
		<path id="Layer" class="shp0" d="M1029.57 258.37C1029.18 257.68 1028.83 256.97 1028.53 256.23C1028.23 255.5 1027.97 254.74 1027.77 253.97C1027.57 253.2 1027.42 252.42 1027.33 251.64C1027.23 250.85 1027.18 250.05 1027.19 249.26C1027.19 241.03 1032.29 234.36 1038.58 234.36C1044.87 234.36 1049.96 241.03 1049.96 249.26C1049.97 250.05 1049.92 250.85 1049.82 251.64C1049.73 252.42 1049.58 253.2 1049.38 253.97C1049.18 254.74 1048.92 255.5 1048.62 256.23C1048.32 256.97 1047.97 257.68 1047.58 258.37C1048.36 259.75 1048.95 261.23 1049.35 262.77C1049.76 264.31 1049.96 265.89 1049.96 267.48C1049.96 269.06 1049.76 270.64 1049.35 272.18C1048.95 273.72 1048.36 275.2 1047.58 276.58C1048.36 277.96 1048.95 279.44 1049.35 280.98C1049.76 282.52 1049.96 284.1 1049.96 285.68C1049.96 287.27 1049.76 288.85 1049.35 290.39C1048.95 291.93 1048.36 293.41 1047.58 294.79C1047.98 295.48 1048.32 296.19 1048.63 296.93C1048.93 297.66 1049.18 298.42 1049.38 299.19C1049.58 299.95 1049.73 300.74 1049.83 301.52C1049.92 302.31 1049.97 303.11 1049.96 303.9C1049.96 312.12 1044.86 318.8 1038.58 318.8C1032.3 318.8 1027.19 312.12 1027.19 303.9C1027.18 303.11 1027.23 302.31 1027.32 301.52C1027.42 300.74 1027.57 299.95 1027.77 299.19C1027.97 298.42 1028.22 297.66 1028.52 296.93C1028.83 296.19 1029.17 295.48 1029.57 294.79C1028.79 293.41 1028.2 291.93 1027.8 290.39C1027.39 288.85 1027.19 287.27 1027.19 285.68C1027.19 284.1 1027.39 282.52 1027.8 280.98C1028.2 279.44 1028.79 277.96 1029.57 276.58C1028.79 275.2 1028.2 273.72 1027.8 272.18C1027.39 270.64 1027.19 269.06 1027.19 267.48C1027.19 265.89 1027.39 264.31 1027.8 262.77C1028.2 261.23 1028.79 259.75 1029.57 258.37Z" />
		<path id="Layer" class="shp0" d="M1038.58 245.97C1032.29 245.97 1027.2 239.31 1027.2 231.07C1027.2 222.83 1032.29 216.17 1038.58 216.17C1044.87 216.17 1049.96 222.83 1049.96 231.07C1049.96 239.31 1044.87 245.97 1038.58 245.97Z" />
		<path id="Layer" class="shp0" d="M1038.58 227.76C1032.29 227.76 1027.2 221.1 1027.2 212.86C1027.2 204.62 1032.29 197.96 1038.58 197.96C1044.87 197.96 1049.96 204.62 1049.96 212.86C1049.96 221.1 1044.87 227.76 1038.58 227.76Z" />
		<path id="Layer" class="shp1" d="M1081.18 88.23C1081.57 87.74 1081.95 87.24 1082.32 86.73C1082.69 86.22 1083.06 85.71 1083.41 85.19C1083.76 84.66 1084.11 84.14 1084.44 83.61C1084.78 83.07 1085.1 82.53 1085.42 81.99L1055.52 77.08L1087.86 77.32C1089.4 73.95 1090.6 70.43 1091.43 66.82C1092.27 63.21 1092.73 59.53 1092.81 55.82C1092.9 52.12 1092.61 48.42 1091.94 44.77C1091.28 41.12 1090.25 37.56 1088.86 34.12L1045.47 56.63L1085.47 27.21C1077.95 13.99 1065.26 4.52 1050.45 1.06C1035.64 -2.39 1020.06 0.5 1007.48 9.03C994.89 17.56 986.44 30.96 984.16 46C981.88 61.03 985.98 76.33 995.47 88.21C994.86 88.98 994.28 89.76 993.72 90.57C993.15 91.37 992.61 92.18 992.09 93.01C991.57 93.84 991.08 94.69 990.6 95.54C990.13 96.4 989.68 97.27 989.25 98.15L1028.08 118.37L986.69 104.48C985.24 108.76 984.33 113.2 983.98 117.71C983.62 122.21 983.83 126.74 984.6 131.19C985.36 135.65 986.68 139.99 988.51 144.12C990.35 148.24 992.69 152.13 995.48 155.68C982.57 172.09 980.17 194.43 989.29 213.21C998.41 231.99 1017.45 243.91 1038.33 243.91C1059.21 243.91 1078.25 231.99 1087.37 213.21C1096.49 194.43 1094.09 172.09 1081.18 155.68C1084.93 150.91 1087.86 145.54 1089.85 139.81C1091.84 134.07 1092.85 128.04 1092.85 121.97C1092.85 115.9 1091.84 109.87 1089.85 104.13C1087.86 98.4 1084.93 93.03 1081.18 88.26L1081.18 88.23Z" />
		<path id="Layer" class="shp2" d="M983.81 121.94C983.81 124.97 984.05 128 984.55 130.99C985.05 133.98 985.8 136.92 986.8 139.78C987.79 142.65 989.02 145.42 990.47 148.08C991.93 150.74 993.6 153.27 995.48 155.65C982.57 172.06 980.17 194.4 989.29 213.18C998.41 231.96 1017.45 243.88 1038.33 243.88C1059.21 243.88 1078.25 231.96 1087.37 213.18C1096.49 194.4 1094.09 172.06 1081.18 155.65C1088.49 146.37 983.81 115.82 983.81 121.94Z" />
	</g>
	<g id="Layer" style="opacity: 0.102">
		<path id="Layer" class="shp0" d="M928.72 335.39C924.01 335.39 920.21 330.41 920.21 324.26C920.21 318.11 924.01 313.13 928.72 313.13C933.43 313.13 937.23 318.11 937.23 324.26C937.23 330.41 933.43 335.39 928.72 335.39Z" />
		<path id="Layer" class="shp0" d="M922 276.63C921.71 276.12 921.45 275.58 921.22 275.03C921 274.48 920.81 273.92 920.66 273.35C920.51 272.77 920.4 272.19 920.33 271.6C920.26 271.02 920.22 270.42 920.23 269.83C920.23 263.68 924.04 258.69 928.73 258.69C933.42 258.69 937.24 263.69 937.24 269.83C937.25 270.42 937.21 271.02 937.14 271.6C937.07 272.19 936.96 272.78 936.81 273.35C936.66 273.92 936.47 274.49 936.24 275.03C936.02 275.58 935.76 276.12 935.46 276.63C936.04 277.66 936.49 278.77 936.79 279.92C937.09 281.07 937.24 282.25 937.24 283.44C937.24 284.62 937.09 285.8 936.79 286.95C936.49 288.1 936.04 289.21 935.46 290.24C936.04 291.27 936.49 292.38 936.79 293.53C937.09 294.68 937.24 295.86 937.24 297.05C937.24 298.23 937.09 299.41 936.79 300.56C936.49 301.71 936.04 302.82 935.46 303.85C935.76 304.36 936.02 304.9 936.24 305.45C936.47 305.99 936.66 306.56 936.81 307.13C936.96 307.7 937.07 308.29 937.14 308.88C937.21 309.46 937.25 310.06 937.24 310.65C937.24 316.8 933.43 321.79 928.73 321.79C924.03 321.79 920.23 316.79 920.23 310.65C920.22 310.06 920.26 309.46 920.33 308.88C920.4 308.29 920.51 307.71 920.66 307.13C920.81 306.56 921 306 921.22 305.45C921.45 304.9 921.71 304.36 922 303.85C921.42 302.81 920.98 301.71 920.68 300.56C920.39 299.41 920.23 298.23 920.23 297.05C920.23 295.86 920.39 294.68 920.68 293.53C920.98 292.38 921.42 291.28 922 290.24C921.42 289.2 920.98 288.1 920.68 286.95C920.39 285.8 920.23 284.62 920.23 283.44C920.23 282.25 920.39 281.07 920.68 279.92C920.98 278.77 921.42 277.67 922 276.63Z" />
		<path id="Layer" class="shp0" d="M928.72 267.35C924.01 267.35 920.21 262.37 920.21 256.22C920.21 250.07 924.01 245.09 928.72 245.09C933.43 245.09 937.23 250.07 937.23 256.22C937.23 262.37 933.43 267.35 928.72 267.35Z" />
		<path id="Layer" class="shp0" d="M928.72 253.74C924.01 253.74 920.21 248.76 920.21 242.61C920.21 236.46 924.01 231.48 928.72 231.48C933.43 231.48 937.23 236.46 937.23 242.61C937.23 248.76 933.43 253.74 928.72 253.74Z" />
		<path id="Layer" class="shp1" d="M960.56 149.48C960.85 149.11 961.14 148.74 961.42 148.36C961.69 147.98 961.96 147.6 962.23 147.21C962.49 146.82 962.75 146.43 963 146.03C963.25 145.63 963.49 145.23 963.73 144.82L941.38 141.15L965.55 141.33C966.71 138.81 967.6 136.19 968.23 133.49C968.85 130.79 969.2 128.03 969.27 125.27C969.33 122.5 969.12 119.73 968.63 117C968.13 114.28 967.36 111.61 966.33 109.04L933.9 125.87L963.81 103.87C958.16 94.06 948.68 87.05 937.64 84.51C926.61 81.97 915.02 84.14 905.65 90.49C896.27 96.84 889.97 106.8 888.24 117.99C886.5 129.18 889.51 140.58 896.52 149.47C896.07 150.05 895.63 150.63 895.21 151.23C894.79 151.83 894.39 152.44 894 153.06C893.61 153.68 893.24 154.31 892.88 154.95C892.53 155.59 892.19 156.24 891.87 156.9L920.87 171.97L890 161.6C888.92 164.8 888.24 168.12 887.97 171.48C887.71 174.85 887.87 178.24 888.44 181.56C889.01 184.89 889.99 188.13 891.36 191.22C892.73 194.3 894.48 197.21 896.57 199.86C886.91 212.12 885.1 228.82 891.92 242.86C898.73 256.9 912.96 265.81 928.57 265.81C944.18 265.81 958.41 256.9 965.22 242.86C972.04 228.82 970.23 212.12 960.57 199.86C963.38 196.29 965.56 192.29 967.05 188C968.53 183.71 969.29 179.21 969.29 174.67C969.29 170.13 968.53 165.63 967.05 161.34C965.56 157.05 963.38 153.05 960.57 149.48L960.56 149.48Z" />
		<path id="Layer" class="shp2" d="M887.8 174.67C887.8 176.93 887.98 179.2 888.36 181.43C888.73 183.66 889.29 185.86 890.03 188C890.77 190.14 891.69 192.22 892.78 194.2C893.87 196.19 895.12 198.08 896.52 199.86C886.86 212.12 885.05 228.82 891.87 242.86C898.68 256.9 912.91 265.81 928.52 265.81C944.13 265.81 958.36 256.9 965.17 242.86C971.99 228.82 970.18 212.12 960.52 199.86C966 192.93 887.8 170.1 887.8 174.67Z" />
	</g>
	<g id="Layer" style="opacity: 0.102">
		<path id="Layer" class="shp0" d="M61.59 337.02C55.3 337.02 50.21 330.36 50.21 322.12C50.21 313.88 55.3 307.22 61.59 307.22C67.88 307.22 72.97 313.88 72.97 322.12C72.97 330.36 67.88 337.02 61.59 337.02Z" />
		<path id="Layer" class="shp0" d="M70.59 258.37C70.98 257.68 71.33 256.97 71.63 256.23C71.93 255.5 72.19 254.74 72.39 253.97C72.59 253.2 72.74 252.42 72.83 251.64C72.93 250.85 72.98 250.05 72.97 249.26C72.97 241.03 67.87 234.36 61.59 234.36C55.31 234.36 50.21 241.03 50.21 249.26C50.2 250.05 50.25 250.85 50.34 251.64C50.44 252.42 50.59 253.2 50.79 253.97C50.99 254.74 51.24 255.5 51.54 256.23C51.84 256.97 52.19 257.68 52.58 258.37C51.81 259.76 51.21 261.23 50.81 262.77C50.41 264.31 50.21 265.89 50.21 267.48C50.21 269.06 50.41 270.64 50.81 272.18C51.21 273.72 51.81 275.19 52.58 276.58C51.81 277.97 51.21 279.44 50.81 280.98C50.41 282.52 50.21 284.1 50.21 285.68C50.21 287.27 50.41 288.85 50.81 290.39C51.21 291.93 51.81 293.4 52.58 294.79C52.19 295.48 51.84 296.19 51.54 296.93C51.24 297.66 50.99 298.42 50.79 299.19C50.59 299.96 50.44 300.74 50.34 301.52C50.25 302.31 50.2 303.11 50.21 303.9C50.21 312.12 55.3 318.8 61.59 318.8C67.88 318.8 73 312.14 73 303.92C73.01 303.13 72.96 302.33 72.87 301.54C72.77 300.76 72.62 299.97 72.42 299.21C72.22 298.44 71.97 297.68 71.67 296.95C71.36 296.21 71.02 295.5 70.62 294.81C71.4 293.43 71.99 291.95 72.39 290.41C72.8 288.87 73 287.29 73 285.71C73 284.12 72.8 282.54 72.39 281C71.99 279.46 71.4 277.98 70.62 276.6C71.4 275.22 71.99 273.74 72.39 272.2C72.8 270.66 73 269.08 73 267.5C73 265.91 72.8 264.33 72.39 262.79C71.99 261.25 71.4 259.77 70.62 258.39L70.59 258.37Z" />
		<path id="Layer" class="shp0" d="M61.59 245.97C55.3 245.97 50.21 239.31 50.21 231.07C50.21 222.83 55.3 216.17 61.59 216.17C67.88 216.17 72.97 222.83 72.97 231.07C72.97 239.31 67.88 245.97 61.59 245.97Z" />
		<path id="Layer" class="shp0" d="M61.59 227.76C55.3 227.76 50.21 221.1 50.21 212.86C50.21 204.62 55.3 197.96 61.59 197.96C67.88 197.96 72.97 204.62 72.97 212.86C72.97 221.1 67.88 227.76 61.59 227.76Z" />
		<path id="Layer" class="shp1" d="M19 88.23C18.61 87.74 18.23 87.23 17.86 86.73C17.49 86.22 17.13 85.7 16.77 85.18C16.42 84.66 16.07 84.14 15.74 83.6C15.4 83.07 15.08 82.53 14.76 81.99L44.67 77.08L12.3 77.37C10.76 74 9.56 70.48 8.73 66.87C7.89 63.26 7.43 59.58 7.35 55.87C7.26 52.17 7.55 48.47 8.22 44.82C8.88 41.17 9.91 37.61 11.3 34.17L54.7 56.68L14.7 27.26C22.24 14.08 34.93 4.65 49.71 1.22C64.5 -2.21 80.05 0.68 92.61 9.2C105.18 17.71 113.63 31.08 115.92 46.09C118.21 61.1 114.15 76.38 104.7 88.26C105.31 89.03 105.89 89.81 106.45 90.62C107.02 91.42 107.56 92.23 108.08 93.06C108.6 93.89 109.09 94.74 109.57 95.59C110.04 96.45 110.49 97.32 110.92 98.2L72.08 118.37L113.48 104.48C114.93 108.76 115.83 113.2 116.18 117.71C116.54 122.21 116.33 126.74 115.56 131.19C114.8 135.65 113.48 139.99 111.65 144.11C109.81 148.24 107.47 152.13 104.68 155.68C117.59 172.09 119.99 194.43 110.87 213.21C101.75 231.99 82.71 243.91 61.83 243.91C40.95 243.91 21.91 231.99 12.79 213.21C3.67 194.43 6.07 172.09 18.98 155.68C15.23 150.91 12.3 145.54 10.31 139.81C8.32 134.07 7.31 128.04 7.31 121.97C7.31 115.9 8.32 109.87 10.31 104.13C12.3 98.4 15.23 93.03 18.98 88.26L19 88.23Z" />
		<path id="Layer" class="shp2" d="M116.35 121.94C116.35 124.97 116.11 128 115.61 130.99C115.11 133.98 114.36 136.92 113.36 139.78C112.37 142.65 111.14 145.42 109.69 148.08C108.23 150.74 106.56 153.27 104.68 155.65C117.59 172.06 119.99 194.4 110.87 213.18C101.75 231.96 82.71 243.88 61.83 243.88C40.95 243.88 21.91 231.96 12.79 213.18C3.67 194.4 6.07 172.06 18.98 155.65C11.67 146.37 116.35 115.82 116.35 121.94Z" />
	</g>
	<g id="Layer" style="opacity: 0.102">
		<path id="Layer" class="shp0" d="M171.44 335.39C166.73 335.39 162.93 330.41 162.93 324.26C162.93 318.11 166.73 313.13 171.44 313.13C176.15 313.13 179.95 318.11 179.95 324.26C179.95 330.41 176.15 335.39 171.44 335.39Z" />
		<path id="Layer" class="shp0" d="M178.17 276.63C178.46 276.12 178.72 275.58 178.95 275.03C179.17 274.48 179.36 273.92 179.51 273.35C179.66 272.77 179.77 272.19 179.84 271.6C179.91 271.02 179.95 270.42 179.94 269.83C179.94 263.68 176.14 258.69 171.44 258.69C166.74 258.69 162.93 263.69 162.93 269.83C162.92 270.42 162.96 271.02 163.03 271.6C163.11 272.19 163.22 272.77 163.37 273.35C163.52 273.92 163.71 274.49 163.93 275.03C164.15 275.58 164.42 276.12 164.71 276.63C164.13 277.66 163.68 278.77 163.38 279.92C163.08 281.07 162.93 282.25 162.93 283.44C162.93 284.62 163.08 285.8 163.38 286.95C163.68 288.1 164.13 289.21 164.71 290.24C164.13 291.27 163.68 292.38 163.38 293.53C163.08 294.68 162.93 295.86 162.93 297.05C162.93 298.23 163.08 299.41 163.38 300.56C163.68 301.71 164.13 302.82 164.71 303.85C164.42 304.36 164.15 304.9 163.93 305.45C163.71 305.99 163.52 306.56 163.37 307.13C163.22 307.71 163.11 308.29 163.03 308.88C162.96 309.46 162.92 310.06 162.93 310.65C162.93 316.8 166.74 321.79 171.44 321.79C176.14 321.79 179.94 316.79 179.94 310.65C179.95 310.06 179.91 309.46 179.84 308.88C179.77 308.29 179.66 307.71 179.51 307.13C179.36 306.56 179.17 306 178.95 305.45C178.72 304.9 178.46 304.36 178.17 303.85C178.75 302.81 179.19 301.71 179.49 300.56C179.78 299.41 179.94 298.23 179.94 297.05C179.94 295.86 179.78 294.68 179.49 293.53C179.19 292.38 178.75 291.28 178.17 290.24C178.75 289.2 179.19 288.1 179.49 286.95C179.78 285.8 179.94 284.62 179.94 283.44C179.94 282.25 179.78 281.07 179.49 279.92C179.19 278.77 178.75 277.67 178.17 276.63Z" />
		<path id="Layer" class="shp0" d="M171.44 267.35C166.73 267.35 162.93 262.37 162.93 256.22C162.93 250.07 166.73 245.09 171.44 245.09C176.15 245.09 179.95 250.07 179.95 256.22C179.95 262.37 176.15 267.35 171.44 267.35Z" />
		<path id="Layer" class="shp0" d="M171.44 253.74C166.73 253.74 162.93 248.76 162.93 242.61C162.93 236.46 166.73 231.48 171.44 231.48C176.15 231.48 179.95 236.46 179.95 242.61C179.95 248.76 176.15 253.74 171.44 253.74Z" />
		<path id="Layer" class="shp1" d="M139.6 149.48C139.31 149.11 139.02 148.74 138.75 148.36C138.47 147.98 138.2 147.59 137.93 147.21C137.67 146.82 137.41 146.42 137.16 146.03C136.91 145.63 136.67 145.23 136.43 144.82L158.78 141.15L134.61 141.33C133.45 138.81 132.56 136.19 131.93 133.49C131.31 130.79 130.96 128.03 130.89 125.27C130.83 122.5 131.04 119.73 131.53 117C132.03 114.28 132.8 111.61 133.83 109.04L166.26 125.87L136.35 103.87C142 94.06 151.48 87.05 162.52 84.51C173.55 81.97 185.14 84.14 194.51 90.49C203.89 96.84 210.19 106.8 211.92 117.99C213.66 129.18 210.65 140.58 203.64 149.47C204.09 150.04 204.53 150.63 204.95 151.23C205.38 151.83 205.78 152.44 206.17 153.06C206.56 153.68 206.93 154.31 207.28 154.95C207.64 155.59 207.97 156.24 208.29 156.9L179.29 171.97L210.22 161.59C211.3 164.79 211.98 168.11 212.25 171.47C212.51 174.84 212.35 178.23 211.78 181.55C211.21 184.88 210.23 188.12 208.86 191.21C207.49 194.29 205.74 197.2 203.65 199.85C213.31 212.11 215.12 228.81 208.3 242.85C201.49 256.89 187.26 265.8 171.65 265.8C156.04 265.8 141.81 256.89 135 242.85C128.18 228.81 129.99 212.11 139.65 199.85C136.84 196.28 134.66 192.28 133.17 187.99C131.69 183.7 130.93 179.2 130.93 174.66C130.93 170.12 131.69 165.62 133.17 161.33C134.66 157.04 136.84 153.04 139.65 149.47L139.6 149.48Z" />
		<path id="Layer" class="shp2" d="M212.36 174.67C212.36 176.93 212.18 179.2 211.8 181.43C211.43 183.66 210.87 185.86 210.13 188C209.39 190.14 208.47 192.22 207.38 194.2C206.29 196.19 205.04 198.08 203.64 199.86C213.3 212.12 215.11 228.82 208.29 242.86C201.48 256.9 187.25 265.81 171.64 265.81C156.03 265.81 141.8 256.9 134.99 242.86C128.17 228.82 129.98 212.12 139.64 199.86C134.14 192.93 212.36 170.1 212.36 174.67Z" />
	</g>
	<path id="Layer" class="shp3" d="M548 501.99C244.96 501.99 0 498.03 0 493.13C0 488.23 244.96 484.27 548 484.27C851.04 484.27 1096 488.23 1096 493.13C1096 498.03 851.04 501.99 548 501.99Z" />
	<path id="Layer" class="shp3" d="M548 574.74C244.96 574.74 0 570.78 0 565.88C0 560.98 244.96 557.02 548 557.02C851.04 557.02 1096 560.98 1096 565.88C1096 570.78 851.04 574.74 548 574.74Z" />
	<path id="Layer" class="shp3" d="M548 350.16C244.96 350.16 0 346.2 0 341.3C0 336.4 244.96 332.44 548 332.44C851.04 332.44 1096 336.4 1096 341.3C1096 346.2 851.04 350.16 548 350.16Z" />
	<path id="Layer" class="shp3" d="M548 426.07C244.96 426.07 0 422.11 0 417.21C0 412.31 244.96 408.35 548 408.35C851.04 408.35 1096 412.31 1096 417.21C1096 422.11 851.04 426.07 548 426.07Z" />
	<path id="Layer" class="shp3" d="M808.79 110.37C807.9 110.2 807.01 110.1 806.1 110.07C805.2 110.03 804.3 110.06 803.4 110.16C802.51 110.26 801.62 110.42 800.75 110.65C799.87 110.88 799.02 111.17 798.19 111.53C797.19 111.98 796.15 112.31 795.08 112.54C794.01 112.77 792.91 112.89 791.82 112.89C790.73 112.89 789.63 112.77 788.56 112.54C787.49 112.31 786.45 111.98 785.45 111.53C784.27 111.01 783.03 110.62 781.77 110.37C780.5 110.12 779.21 110 777.92 110.03C776.63 110.05 775.34 110.22 774.09 110.52C772.83 110.82 771.61 111.26 770.45 111.82C770.12 112 769.78 112.15 769.43 112.28C769.08 112.42 768.72 112.53 768.36 112.62C768 112.71 767.63 112.78 767.26 112.83C766.89 112.88 766.51 112.9 766.14 112.9C760.06 112.9 755.01 106.78 753.96 98.71C754.26 98.49 754.55 98.25 754.82 98C755.1 97.75 755.36 97.49 755.61 97.22C755.87 96.94 756.1 96.66 756.33 96.36C756.55 96.06 756.76 95.76 756.96 95.44C760.52 89.7 766.03 86.01 772.23 86.01C778.43 86.01 783.87 89.65 787.43 95.33C787.96 96.18 788.59 96.97 789.32 97.66C790.05 98.35 790.86 98.95 791.75 99.43C792.63 99.91 793.56 100.28 794.54 100.52C795.51 100.77 796.52 100.88 797.52 100.87L797.68 100.87C802.57 100.82 806.76 104.7 808.79 110.37Z" />
	<path id="Layer" class="shp3" d="M827.3 85.02L817.48 91.24L823.48 80.4C823.06 80.07 822.62 79.77 822.15 79.51C821.68 79.25 821.19 79.03 820.69 78.85C820.18 78.67 819.66 78.53 819.14 78.44C818.61 78.35 818.08 78.3 817.54 78.29L817.38 78.29C817.21 78.29 817.05 78.29 816.88 78.29C816.71 78.28 816.54 78.27 816.38 78.26C816.21 78.25 816.04 78.23 815.88 78.21C815.71 78.19 815.55 78.17 815.38 78.14L812 80.25L813.43 77.65C812.84 77.45 812.27 77.2 811.73 76.91C811.18 76.61 810.66 76.28 810.16 75.9C809.67 75.53 809.21 75.12 808.78 74.67C808.35 74.22 807.95 73.74 807.6 73.23L801.6 77.01L805.36 70.17C801.88 65.99 797.18 63.43 792.02 63.43C785.82 63.43 780.31 67.11 776.74 72.85C776.22 73.7 775.58 74.49 774.85 75.17C774.13 75.86 773.31 76.45 772.43 76.93C771.55 77.4 770.6 77.76 769.63 77.99C768.65 78.22 767.65 78.32 766.65 78.29L766.32 78.29C759.48 78.29 753.94 86.04 753.94 95.6C753.94 105.16 759.48 112.92 766.32 112.92C766.69 112.92 767.07 112.89 767.44 112.85C767.81 112.8 768.18 112.73 768.54 112.64C768.9 112.55 769.26 112.44 769.61 112.3C769.96 112.17 770.3 112.01 770.63 111.84C771.79 111.27 773.01 110.84 774.27 110.53C775.52 110.23 776.81 110.06 778.1 110.04C779.39 110.01 780.68 110.13 781.95 110.38C783.21 110.63 784.45 111.02 785.63 111.54C786.63 111.99 787.67 112.33 788.74 112.56C789.81 112.79 790.91 112.9 792 112.9C793.09 112.9 794.19 112.79 795.26 112.56C796.33 112.33 797.37 111.99 798.37 111.54C799.54 111.03 800.77 110.65 802.02 110.41C803.28 110.16 804.55 110.05 805.83 110.07C807.11 110.1 808.38 110.26 809.63 110.55C810.87 110.85 812.08 111.28 813.23 111.83C813.56 112 813.89 112.15 814.24 112.28C814.59 112.42 814.94 112.53 815.3 112.61C815.66 112.7 816.02 112.77 816.39 112.82C816.75 112.86 817.12 112.89 817.49 112.89C824.33 112.89 829.87 105.13 829.87 95.57C829.88 94.66 829.83 93.74 829.73 92.83C829.63 91.92 829.46 91.02 829.25 90.13C829.03 89.24 828.76 88.37 828.43 87.52C828.11 86.66 827.73 85.83 827.3 85.02Z" />
	<path id="Layer" class="shp3" d="M391.26 104.96C390.64 104.84 390.01 104.77 389.38 104.75C388.75 104.72 388.11 104.74 387.48 104.81C386.86 104.88 386.23 105 385.62 105.16C385.01 105.32 384.41 105.52 383.83 105.77C383.13 106.08 382.4 106.32 381.65 106.48C380.9 106.64 380.14 106.72 379.38 106.72C378.61 106.72 377.85 106.64 377.1 106.48C376.35 106.32 375.62 106.08 374.92 105.77C374.09 105.41 373.23 105.13 372.34 104.96C371.46 104.78 370.55 104.7 369.65 104.72C368.75 104.74 367.85 104.85 366.97 105.07C366.09 105.28 365.24 105.58 364.43 105.98C364.2 106.1 363.96 106.21 363.72 106.3C363.48 106.39 363.23 106.47 362.97 106.53C362.72 106.6 362.47 106.64 362.21 106.68C361.95 106.71 361.69 106.73 361.43 106.73C357.18 106.73 353.64 102.45 352.9 96.8C353.11 96.64 353.32 96.48 353.51 96.31C353.71 96.13 353.89 95.95 354.07 95.76C354.25 95.56 354.42 95.36 354.58 95.16C354.74 94.95 354.89 94.73 355.03 94.51C357.52 90.51 361.38 87.91 365.72 87.91C370.06 87.91 373.87 90.46 376.36 94.43C376.73 95.03 377.18 95.58 377.69 96.06C378.2 96.55 378.77 96.96 379.38 97.3C380 97.64 380.66 97.9 381.34 98.07C382.02 98.24 382.73 98.32 383.43 98.31L383.54 98.31C386.9 98.29 389.83 101.01 391.26 104.96Z" />
	<path id="Layer" class="shp3" d="M404.21 87.23L397.34 91.59L401.51 84C401.22 83.77 400.91 83.56 400.58 83.37C400.25 83.19 399.91 83.04 399.56 82.91C399.21 82.79 398.84 82.69 398.48 82.62C398.11 82.56 397.73 82.52 397.36 82.52L397.24 82.52C397.12 82.52 397 82.52 396.88 82.52C396.76 82.51 396.65 82.51 396.53 82.5C396.41 82.49 396.29 82.48 396.17 82.46C396.05 82.45 395.94 82.43 395.82 82.41L393.49 83.89L394.49 82.07C394.08 81.93 393.68 81.75 393.3 81.55C392.92 81.34 392.55 81.11 392.21 80.85C391.86 80.59 391.54 80.3 391.23 79.98C390.93 79.67 390.66 79.34 390.41 78.98L386.24 81.62L388.88 76.84C388.33 76.13 387.7 75.48 387 74.9C386.31 74.33 385.55 73.83 384.74 73.42C383.94 73.02 383.09 72.7 382.21 72.48C381.34 72.26 380.44 72.13 379.54 72.11C375.2 72.11 371.34 74.69 368.85 78.71C368.48 79.31 368.04 79.86 367.53 80.34C367.02 80.82 366.45 81.23 365.83 81.57C365.21 81.9 364.55 82.15 363.87 82.31C363.18 82.47 362.48 82.54 361.78 82.52L361.55 82.52C356.76 82.52 352.88 87.94 352.88 94.64C352.88 101.34 356.76 106.76 361.55 106.76C361.81 106.76 362.07 106.74 362.33 106.71C362.59 106.67 362.84 106.63 363.1 106.56C363.35 106.5 363.6 106.42 363.84 106.32C364.08 106.23 364.32 106.12 364.55 106C365.36 105.61 366.21 105.3 367.09 105.09C367.97 104.88 368.87 104.77 369.77 104.75C370.67 104.73 371.57 104.81 372.46 104.99C373.34 105.17 374.2 105.44 375.03 105.8C375.38 105.96 375.74 106.1 376.11 106.22C376.47 106.35 376.85 106.45 377.22 106.54C377.6 106.62 377.98 106.68 378.36 106.73C378.75 106.77 379.13 106.8 379.52 106.8C379.9 106.8 380.28 106.78 380.66 106.74C381.04 106.7 381.41 106.64 381.78 106.56C382.16 106.48 382.52 106.38 382.89 106.27C383.25 106.15 383.6 106.01 383.95 105.86C384.77 105.5 385.63 105.24 386.51 105.07C387.38 104.89 388.28 104.81 389.17 104.83C390.07 104.85 390.96 104.96 391.83 105.17C392.7 105.37 393.54 105.67 394.35 106.06C394.58 106.18 394.82 106.29 395.06 106.38C395.3 106.47 395.55 106.55 395.81 106.61C396.06 106.67 396.31 106.72 396.57 106.75C396.83 106.78 397.09 106.8 397.35 106.8C402.13 106.8 406.01 101.37 406.01 94.68C406.02 94.03 405.99 93.39 405.92 92.75C405.85 92.11 405.73 91.47 405.58 90.84C405.43 90.21 405.24 89.6 405.01 88.99C404.78 88.39 404.51 87.8 404.21 87.23Z" />
	<path id="Layer" class="shp3" d="M269.59 183.37C270.21 183.25 270.84 183.18 271.47 183.16C272.1 183.13 272.73 183.15 273.36 183.22C273.99 183.29 274.61 183.41 275.22 183.57C275.83 183.73 276.43 183.93 277.01 184.18C277.71 184.49 278.44 184.73 279.19 184.89C279.94 185.05 280.7 185.13 281.47 185.13C282.24 185.13 283 185.05 283.75 184.89C284.5 184.73 285.23 184.49 285.93 184.18C286.76 183.82 287.62 183.55 288.51 183.37C289.39 183.19 290.29 183.11 291.2 183.13C292.1 183.15 293 183.26 293.88 183.47C294.75 183.68 295.61 183.99 296.42 184.38C296.65 184.5 296.89 184.61 297.13 184.7C297.37 184.8 297.62 184.88 297.87 184.94C298.13 185.01 298.38 185.05 298.64 185.09C298.9 185.12 299.16 185.14 299.42 185.14C303.67 185.14 307.21 180.85 307.94 175.2C307.73 175.05 307.53 174.88 307.33 174.71C307.13 174.53 306.95 174.35 306.77 174.16C306.59 173.97 306.42 173.76 306.26 173.56C306.11 173.35 305.96 173.13 305.82 172.91C303.32 168.91 299.46 166.32 295.13 166.32C290.8 166.32 286.98 168.86 284.48 172.84C284.11 173.44 283.66 173.99 283.16 174.47C282.65 174.95 282.08 175.37 281.46 175.71C280.84 176.05 280.19 176.3 279.51 176.48C278.82 176.65 278.12 176.73 277.42 176.72L277.31 176.72C273.94 176.74 271 179.45 269.59 183.37Z" />
	<path id="Layer" class="shp3" d="M256.63 165.67L263.51 170.03L259.33 162.45C259.62 162.22 259.93 162.01 260.26 161.82C260.59 161.64 260.93 161.48 261.29 161.36C261.64 161.23 262 161.13 262.37 161.07C262.74 161 263.11 160.96 263.49 160.96L263.6 160.96C263.72 160.96 263.84 160.96 263.96 160.96C264.08 160.95 264.2 160.95 264.32 160.94C264.44 160.93 264.56 160.92 264.67 160.91C264.79 160.89 264.91 160.88 265.03 160.86L267.36 162.33L266.36 160.52C266.77 160.38 267.17 160.2 267.55 160C267.93 159.79 268.29 159.56 268.64 159.3C268.98 159.03 269.31 158.75 269.61 158.43C269.91 158.12 270.18 157.79 270.43 157.43L274.6 160.07L272 155.28C272.55 154.57 273.18 153.92 273.88 153.34C274.58 152.77 275.33 152.27 276.14 151.87C276.94 151.46 277.79 151.14 278.67 150.92C279.54 150.7 280.44 150.58 281.34 150.56C285.67 150.56 289.54 153.14 292.03 157.16C292.4 157.76 292.84 158.3 293.35 158.79C293.86 159.27 294.43 159.68 295.05 160.01C295.67 160.35 296.32 160.6 297.01 160.76C297.69 160.92 298.39 160.99 299.09 160.97L299.33 160.97C304.11 160.97 307.99 166.4 307.99 173.09C307.99 179.78 304.11 185.21 299.33 185.21C299.07 185.21 298.81 185.19 298.55 185.16C298.29 185.13 298.04 185.08 297.78 185.02C297.53 184.95 297.28 184.87 297.04 184.78C296.8 184.69 296.56 184.58 296.33 184.46C295.52 184.06 294.67 183.76 293.79 183.55C292.91 183.33 292.01 183.22 291.11 183.2C290.21 183.18 289.3 183.26 288.42 183.44C287.53 183.61 286.67 183.89 285.84 184.25C285.49 184.41 285.13 184.55 284.77 184.68C284.4 184.8 284.03 184.91 283.65 184.99C283.28 185.07 282.9 185.14 282.51 185.18C282.13 185.22 281.75 185.25 281.36 185.25C280.98 185.25 280.6 185.23 280.22 185.19C279.84 185.15 279.46 185.09 279.09 185.01C278.72 184.93 278.35 184.83 277.99 184.72C277.62 184.6 277.27 184.46 276.92 184.31C276.1 183.95 275.24 183.69 274.37 183.52C273.49 183.34 272.6 183.26 271.7 183.28C270.81 183.3 269.92 183.41 269.05 183.62C268.18 183.82 267.34 184.12 266.53 184.51C266.3 184.63 266.06 184.74 265.82 184.83C265.58 184.92 265.33 185 265.07 185.06C264.82 185.12 264.57 185.17 264.31 185.2C264.05 185.23 263.79 185.25 263.53 185.25C258.74 185.25 254.86 179.83 254.86 173.13C254.85 172.48 254.88 171.84 254.95 171.2C255.02 170.55 255.13 169.92 255.27 169.29C255.42 168.66 255.61 168.04 255.84 167.44C256.07 166.83 256.33 166.24 256.63 165.67L256.63 165.67Z" />
	<path id="Layer" class="shp2" d="M428.05 232.14C430.89 232.45 433.65 233.33 436.5 233.51C439.35 233.69 442.5 233 444.29 230.79C444.5 230.47 444.7 230.14 444.9 229.82C445.1 229.49 445.29 229.16 445.48 228.82C445.67 228.49 445.86 228.15 446.04 227.81C446.22 227.48 446.39 227.13 446.56 226.79C446.75 226.49 446.97 226.2 447.2 225.92C447.43 225.65 447.67 225.38 447.94 225.14C448.2 224.89 448.47 224.66 448.76 224.45C449.05 224.24 449.36 224.04 449.67 223.87C451.28 227.03 451.46 230.73 450.15 234.02C448.84 237.32 446.17 239.89 442.83 241.07C439.49 242.26 435.8 241.95 432.7 240.22C429.61 238.49 427.41 235.51 426.67 232.04C427.12 232.05 427.58 232.09 428.05 232.14Z" />
	<path id="Layer" class="shp2" d="M424.54 268.37C426.66 268.47 428.77 268.02 430.67 267.06C432.56 266.1 434.18 264.67 435.36 262.9C436.53 261.13 437.24 259.09 437.39 256.97C437.55 254.85 437.16 252.73 436.25 250.81C436.01 250.97 435.77 251.15 435.54 251.34C435.32 251.52 435.1 251.72 434.89 251.93C434.68 252.14 434.48 252.36 434.3 252.58C434.11 252.81 433.93 253.05 433.77 253.29C433.59 253.64 433.4 253.99 433.2 254.33C433.01 254.68 432.81 255.02 432.61 255.36C432.4 255.7 432.2 256.04 431.98 256.37C431.77 256.7 431.55 257.03 431.33 257.36C429.42 259.61 426.14 260.36 423.17 260.21C420.2 260.06 417.33 259.21 414.37 258.96C413.96 258.96 413.54 258.9 413.13 258.89C413.43 260.18 413.94 261.42 414.64 262.55C415.34 263.68 416.22 264.69 417.25 265.54C418.27 266.39 419.42 267.07 420.66 267.55C421.9 268.03 423.21 268.31 424.54 268.37L424.54 268.37Z" />
	<path id="Layer" class="shp2" d="M454.42 288.28C456.52 288.38 458.61 287.94 460.5 287C462.38 286.07 463.99 284.66 465.18 282.92C466.36 281.18 467.08 279.17 467.26 277.07C467.45 274.98 467.09 272.87 466.23 270.95C465.98 271.12 465.73 271.29 465.5 271.48C465.26 271.67 465.03 271.87 464.81 272.08C464.6 272.29 464.39 272.51 464.19 272.74C463.99 272.97 463.81 273.2 463.63 273.45C463.43 273.81 463.22 274.16 463.01 274.52C462.8 274.87 462.58 275.22 462.36 275.56C462.13 275.91 461.91 276.25 461.67 276.59C461.44 276.93 461.2 277.27 460.96 277.6C458.88 279.91 455.39 280.73 452.24 280.6C449.09 280.47 446.24 279.79 443.24 279.6C443.61 280.8 444.16 281.94 444.88 282.98C445.59 284.02 446.46 284.94 447.46 285.71C448.45 286.48 449.56 287.1 450.74 287.53C451.92 287.97 453.16 288.22 454.42 288.28L454.42 288.28Z" />
	<path id="Layer" class="shp2" d="M448.34 312.18C449.79 314.97 452.24 317.09 455.2 318.13C458.16 319.17 461.41 319.03 464.28 317.76C467.14 316.48 469.41 314.16 470.62 311.26C471.83 308.37 471.89 305.12 470.79 302.18C470.54 302.34 470.29 302.52 470.05 302.7C469.81 302.89 469.57 303.08 469.35 303.28C469.12 303.48 468.9 303.69 468.69 303.91C468.48 304.13 468.28 304.36 468.09 304.59C466.92 306.01 466.09 307.59 464.79 308.96C462.27 311.43 458.21 312.45 454.59 312.54C454.07 312.54 453.55 312.53 453.02 312.52C452.5 312.5 451.98 312.48 451.46 312.45C450.94 312.42 450.42 312.38 449.9 312.34C449.38 312.29 448.86 312.24 448.34 312.18L448.34 312.18Z" />
	<g id="Layer" style="opacity: 0.102">
		<path id="Layer" class="shp4" d="M762.55 487.63C762.55 487.63 752.61 487.36 749.61 486.82C749.61 487.33 749.61 487.63 749.61 487.63C748.83 488.41 763.37 488.81 763.37 488.81C763.42 488.81 763.47 488.82 763.52 488.83C763.56 488.85 763.61 488.86 763.66 488.88C763.7 488.9 763.75 488.92 763.79 488.95C763.83 488.97 763.87 489 763.91 489.03C763.38 487.63 762.55 487.63 762.55 487.63Z" />
		<path id="Layer" class="shp4" d="M779.85 471.51C779.45 471.12 779.06 465.62 779.06 465.62C779.01 465.65 778.96 465.68 778.9 465.71C778.85 465.73 778.79 465.76 778.74 465.78C778.68 465.8 778.62 465.81 778.57 465.83C778.51 465.84 778.45 465.85 778.39 465.86C778.53 467.52 778.8 470.07 779.06 470.33C779.32 470.59 781.06 480.55 780.63 485.27C780.2 489.99 780.63 489.98 780.63 489.98C780.63 489.98 767.88 491.85 764.79 490.6C764.79 490.77 764.88 490.96 764.91 491.16C765.3 493.52 781.42 491.16 781.42 491.16C781.42 491.16 781.02 491.16 781.42 486.45C781.82 481.74 780.24 471.91 779.85 471.51Z" />
		<path id="Layer" class="shp5" d="M762.55 487.63C762.55 487.63 752.61 487.36 749.61 486.82C749.61 487.33 749.61 487.63 749.61 487.63C748.83 488.41 763.37 488.81 763.37 488.81C763.42 488.81 763.47 488.82 763.52 488.83C763.56 488.85 763.61 488.86 763.66 488.88C763.7 488.9 763.75 488.92 763.79 488.95C763.83 488.97 763.87 489 763.91 489.03C763.38 487.63 762.55 487.63 762.55 487.63Z" />
		<path id="Layer" class="shp5" d="M779.85 471.51C779.45 471.12 779.06 465.62 779.06 465.62C779.01 465.65 778.96 465.68 778.9 465.71C778.85 465.73 778.79 465.76 778.74 465.78C778.68 465.8 778.62 465.81 778.57 465.83C778.51 465.84 778.45 465.85 778.39 465.86C778.53 467.52 778.8 470.07 779.06 470.33C779.32 470.59 781.06 480.55 780.63 485.27C780.2 489.99 780.63 489.98 780.63 489.98C780.63 489.98 767.88 491.85 764.79 490.6C764.79 490.77 764.88 490.96 764.91 491.16C765.3 493.52 781.42 491.16 781.42 491.16C781.42 491.16 781.02 491.16 781.42 486.45C781.82 481.74 780.24 471.91 779.85 471.51Z" />
	</g>
	<path id="Layer" class="shp2" d="M765.89 419.44C765.45 419.44 765.01 419.38 764.59 419.26C764.16 419.13 763.76 418.95 763.38 418.72C763.01 418.48 762.67 418.2 762.38 417.87C762.09 417.54 761.84 417.17 761.65 416.77C761.24 416.96 760.83 417.12 760.41 417.26C759.98 417.4 759.55 417.51 759.12 417.61C758.68 417.7 758.24 417.77 757.8 417.81C757.35 417.86 756.91 417.87 756.46 417.87C751.69 417.87 747.82 415.41 747.82 412.37C747.82 412.32 747.81 412.28 747.81 412.23C747.81 412.19 747.81 412.14 747.81 412.1C747.81 412.05 747.81 412 747.81 411.96C747.81 411.91 747.82 411.87 747.82 411.82C747.75 411.95 747.69 412.09 747.63 412.23C747.58 412.37 747.53 412.51 747.49 412.66C747.46 412.8 747.43 412.95 747.41 413.1C747.39 413.25 747.38 413.4 747.38 413.55C747.38 416.55 751.25 419.05 756.03 419.05C756.48 419.05 756.92 419.04 757.37 418.99C757.81 418.95 758.25 418.88 758.69 418.79C759.12 418.69 759.55 418.58 759.98 418.44C760.4 418.3 760.81 418.14 761.22 417.95C761.65 418.84 762.35 419.58 763.22 420.05C764.1 420.52 765.1 420.7 766.08 420.57C767.06 420.44 767.98 420.01 768.7 419.33C769.42 418.65 769.91 417.75 770.09 416.78C769.9 417.17 769.66 417.54 769.37 417.87C769.08 418.19 768.74 418.48 768.37 418.71C768 418.95 767.6 419.13 767.18 419.25C766.76 419.37 766.33 419.44 765.89 419.44L765.89 419.44Z" />
	<path id="Layer" class="shp2" d="M746.23 411.37C746.89 410.02 747.77 408.8 748.83 407.74C749.9 406.69 751.13 405.82 752.48 405.18C753.83 404.53 755.29 404.12 756.77 403.96C758.26 403.79 759.77 403.88 761.23 404.22C763.29 402.95 765.64 402.23 768.05 402.12C770.47 402.02 772.87 402.54 775.03 403.63C777.19 404.72 779.03 406.34 780.38 408.35C781.73 410.35 782.55 412.67 782.75 415.08C782.75 414.69 782.75 414.3 782.75 413.9C782.74 411.38 782.07 408.92 780.79 406.75C779.51 404.58 777.68 402.8 775.48 401.57C773.29 400.35 770.8 399.74 768.29 399.79C765.77 399.85 763.32 400.58 761.18 401.9C759.72 401.56 758.21 401.47 756.72 401.64C755.24 401.8 753.78 402.21 752.43 402.86C751.08 403.5 749.85 404.37 748.78 405.42C747.72 406.48 746.84 407.7 746.18 409.05C745.36 409.83 744.62 410.69 743.97 411.62C743.33 412.55 742.79 413.55 742.35 414.59C741.91 415.64 741.59 416.72 741.37 417.84C741.16 418.95 741.07 420.08 741.09 421.21C741.09 421.61 741.09 422 741.09 422.39C741.14 421.35 741.29 420.32 741.54 419.31C741.79 418.3 742.13 417.32 742.57 416.37C743.01 415.43 743.54 414.53 744.16 413.69C744.77 412.85 745.47 412.07 746.23 411.37L746.23 411.37Z" />
	<path id="Layer" class="shp2" d="M868.87 310.58C866.03 310.9 863.26 311.78 860.41 311.96C857.56 312.14 854.41 311.45 852.62 309.23C852.41 308.91 852.21 308.58 852.01 308.26C851.81 307.93 851.61 307.6 851.42 307.26C851.24 306.93 851.05 306.59 850.87 306.26C850.69 305.92 850.52 305.57 850.35 305.23C850.16 304.93 849.94 304.64 849.71 304.36C849.49 304.09 849.24 303.83 848.98 303.58C848.72 303.33 848.44 303.11 848.15 302.89C847.86 302.68 847.56 302.49 847.25 302.31C845.64 305.47 845.46 309.17 846.77 312.46C848.08 315.76 850.75 318.33 854.09 319.51C857.43 320.7 861.12 320.39 864.22 318.66C867.31 316.93 869.51 313.95 870.25 310.48C869.79 310.5 869.33 310.53 868.87 310.58Z" />
	<path id="Layer" class="shp2" d="M872.37 346.84C870.25 346.94 868.14 346.49 866.24 345.53C864.35 344.57 862.73 343.14 861.55 341.37C860.38 339.6 859.67 337.56 859.52 335.44C859.36 333.32 859.75 331.2 860.66 329.28C860.9 329.44 861.14 329.62 861.37 329.8C861.59 329.99 861.81 330.19 862.02 330.39C862.23 330.6 862.43 330.82 862.61 331.05C862.8 331.27 862.98 331.51 863.14 331.75C863.32 332.1 863.51 332.45 863.7 332.79C863.9 333.14 864.1 333.48 864.3 333.82C864.5 334.16 864.71 334.5 864.92 334.83C865.14 335.16 865.36 335.49 865.58 335.82C867.49 338.08 870.77 338.82 873.74 338.68C876.71 338.54 879.58 337.68 882.54 337.43C882.95 337.43 883.37 337.36 883.78 337.35C883.48 338.65 882.97 339.88 882.27 341.01C881.57 342.15 880.69 343.16 879.67 344.01C878.64 344.86 877.49 345.54 876.25 346.02C875.01 346.5 873.7 346.78 872.37 346.84L872.37 346.84Z" />
	<path id="Layer" class="shp2" d="M842.49 366.72C840.39 366.82 838.29 366.38 836.4 365.44C834.52 364.51 832.91 363.1 831.72 361.36C830.54 359.61 829.82 357.6 829.63 355.5C829.45 353.4 829.81 351.29 830.68 349.37C830.93 349.54 831.18 349.72 831.41 349.91C831.65 350.09 831.87 350.29 832.09 350.5C832.31 350.71 832.52 350.93 832.72 351.16C832.91 351.39 833.1 351.63 833.28 351.87C834.28 353.22 834.83 354.78 835.95 356.02C838.03 358.34 841.52 359.15 844.67 359.08C847.82 359.01 850.67 358.26 853.67 358.03C853.3 359.23 852.75 360.38 852.03 361.41C851.32 362.45 850.45 363.37 849.45 364.14C848.46 364.92 847.35 365.53 846.17 365.97C844.99 366.41 843.75 366.66 842.49 366.72Z" />
	<path id="Layer" class="shp2" d="M848.57 390.63C847.1 393.38 844.65 395.47 841.7 396.48C838.76 397.49 835.54 397.34 832.69 396.08C829.85 394.81 827.59 392.51 826.37 389.65C825.15 386.78 825.06 383.56 826.12 380.63C826.37 380.8 826.62 380.97 826.86 381.15C827.1 381.34 827.34 381.53 827.56 381.73C827.79 381.93 828.01 382.14 828.22 382.36C828.43 382.58 828.63 382.81 828.82 383.04C830 384.47 830.77 386.04 832.12 387.42C834.64 389.89 838.7 390.9 842.32 391C842.84 391 843.36 390.99 843.89 390.98C844.41 390.96 844.93 390.94 845.45 390.91C845.97 390.87 846.49 390.84 847.01 390.79C847.53 390.74 848.05 390.69 848.57 390.63L848.57 390.63Z" />
	<path id="Layer" class="shp2" d="M1027.87 462.58C1025.03 462.9 1022.26 463.78 1019.41 463.96C1016.56 464.14 1013.41 463.45 1011.62 461.23C1011.41 460.91 1011.21 460.58 1011.01 460.26C1010.81 459.93 1010.61 459.6 1010.42 459.26C1010.24 458.93 1010.05 458.59 1009.87 458.26C1009.69 457.92 1009.52 457.57 1009.35 457.23C1009.16 456.93 1008.94 456.64 1008.71 456.36C1008.49 456.09 1008.24 455.83 1007.98 455.58C1007.72 455.33 1007.44 455.11 1007.15 454.89C1006.86 454.68 1006.56 454.49 1006.25 454.31C1004.64 457.47 1004.46 461.17 1005.77 464.46C1007.08 467.76 1009.75 470.33 1013.09 471.51C1016.43 472.7 1020.12 472.39 1023.22 470.66C1026.31 468.93 1028.51 465.95 1029.25 462.48C1028.79 462.5 1028.33 462.53 1027.87 462.58Z" />
	<path id="Layer" class="shp2" d="M1031.37 498.84C1029.25 498.94 1027.14 498.49 1025.24 497.53C1023.35 496.57 1021.73 495.14 1020.55 493.37C1019.38 491.6 1018.67 489.56 1018.52 487.44C1018.36 485.32 1018.75 483.2 1019.66 481.28C1019.9 481.44 1020.14 481.62 1020.37 481.8C1020.59 481.99 1020.81 482.19 1021.02 482.39C1021.23 482.6 1021.43 482.82 1021.61 483.05C1021.8 483.27 1021.98 483.51 1022.14 483.75C1022.32 484.1 1022.51 484.45 1022.7 484.79C1022.9 485.14 1023.1 485.48 1023.3 485.82C1023.5 486.16 1023.71 486.5 1023.92 486.83C1024.14 487.16 1024.36 487.49 1024.58 487.82C1026.49 490.08 1029.77 490.82 1032.74 490.68C1035.71 490.54 1038.58 489.68 1041.54 489.43C1041.95 489.43 1042.37 489.36 1042.78 489.35C1042.48 490.65 1041.97 491.88 1041.27 493.01C1040.57 494.15 1039.69 495.16 1038.67 496.01C1037.64 496.86 1036.49 497.54 1035.25 498.02C1034.01 498.5 1032.7 498.78 1031.37 498.84L1031.37 498.84Z" />
	<path id="Layer" class="shp2" d="M1001.49 518.72C999.39 518.82 997.29 518.38 995.4 517.44C993.52 516.51 991.91 515.1 990.72 513.36C989.54 511.61 988.82 509.6 988.63 507.5C988.45 505.4 988.81 503.29 989.68 501.37C989.93 501.54 990.18 501.72 990.41 501.91C990.65 502.09 990.87 502.29 991.09 502.5C991.31 502.71 991.52 502.93 991.72 503.16C991.91 503.39 992.1 503.63 992.28 503.87C993.28 505.22 993.83 506.78 994.95 508.02C997.03 510.34 1000.52 511.15 1003.67 511.08C1006.82 511.01 1009.67 510.26 1012.67 510.03C1012.3 511.23 1011.75 512.38 1011.03 513.41C1010.32 514.45 1009.45 515.37 1008.45 516.14C1007.46 516.92 1006.35 517.53 1005.17 517.97C1003.99 518.41 1002.75 518.66 1001.49 518.72Z" />
	<path id="Layer" class="shp2" d="M1007.57 542.63C1006.1 545.38 1003.65 547.47 1000.7 548.48C997.76 549.49 994.54 549.34 991.69 548.08C988.85 546.81 986.59 544.51 985.37 541.65C984.15 538.78 984.06 535.56 985.12 532.63C985.37 532.8 985.62 532.97 985.86 533.15C986.1 533.34 986.34 533.53 986.56 533.73C986.79 533.93 987.01 534.14 987.22 534.36C987.43 534.58 987.63 534.81 987.82 535.04C989 536.47 989.82 538.04 991.12 539.42C993.64 541.89 997.7 542.9 1001.32 543C1001.84 543 1002.36 542.99 1002.89 542.98C1003.41 542.96 1003.93 542.94 1004.45 542.91C1004.97 542.87 1005.49 542.84 1006.01 542.79C1006.53 542.74 1007.05 542.69 1007.57 542.63L1007.57 542.63Z" />
	<path id="Layer" class="shp2" d="M438.64 410.93C439.23 408.75 442.47 407.71 446.01 408.51C446.22 407.21 446.65 405.95 447.3 404.8C447.94 403.65 448.78 402.62 449.78 401.76C450.78 400.9 451.92 400.22 453.15 399.75C454.39 399.29 455.69 399.04 457.01 399.03L457.74 399.03C457.49 398.95 457.23 398.88 456.97 398.83C456.71 398.77 456.45 398.72 456.19 398.68C455.92 398.64 455.66 398.61 455.4 398.59C455.13 398.57 454.87 398.56 454.6 398.56C453.28 398.57 451.98 398.82 450.74 399.28C449.51 399.75 448.37 400.43 447.37 401.29C446.37 402.15 445.53 403.18 444.89 404.33C444.24 405.48 443.81 406.74 443.6 408.04C440.06 407.24 436.82 408.28 436.23 410.46C435.64 412.64 438.14 415.46 441.87 416.46C442.04 416.51 442.22 416.55 442.4 416.59C442.57 416.63 442.75 416.67 442.93 416.7C443.11 416.73 443.29 416.76 443.47 416.78C443.65 416.8 443.83 416.82 444.01 416.83C440.44 415.76 438.05 413.16 438.64 410.93Z" />
	<path id="Layer" class="shp2" d="M466.37 434.96C466.37 434.89 466.36 434.82 466.36 434.76C466.36 434.69 466.36 434.62 466.36 434.55C466.36 434.48 466.36 434.41 466.36 434.34C466.36 434.28 466.37 434.21 466.37 434.14C466.09 433.9 465.82 433.64 465.57 433.37C465.32 433.1 465.09 432.82 464.87 432.52C464.66 432.22 464.46 431.91 464.28 431.59C464.1 431.26 463.94 430.93 463.8 430.59C462.78 430.33 461.8 429.94 460.89 429.41C459.98 428.89 459.15 428.24 458.42 427.48C457.68 426.73 457.06 425.87 456.56 424.95C456.07 424.02 455.7 423.03 455.48 422C454.72 421.89 453.96 421.71 453.24 421.45C452.51 421.18 451.82 420.85 451.16 420.44C450.51 420.03 449.9 419.56 449.34 419.02C448.78 418.49 448.28 417.9 447.85 417.26C447.67 417.27 447.49 417.28 447.32 417.29C447.14 417.29 446.96 417.29 446.78 417.29C446.61 417.28 446.43 417.27 446.25 417.26C446.07 417.24 445.9 417.22 445.72 417.2C446.16 417.79 446.65 418.33 447.19 418.82C447.74 419.31 448.33 419.75 448.96 420.12C449.59 420.49 450.25 420.81 450.94 421.05C451.63 421.29 452.35 421.47 453.07 421.57C453.3 422.6 453.66 423.59 454.16 424.51C454.66 425.44 455.28 426.29 456.01 427.04C456.74 427.8 457.58 428.44 458.48 428.97C459.39 429.5 460.37 429.89 461.39 430.15C461.53 430.49 461.69 430.82 461.87 431.14C462.05 431.47 462.25 431.78 462.47 432.07C462.68 432.37 462.92 432.66 463.17 432.93C463.42 433.2 463.68 433.46 463.96 433.7C463.96 433.97 463.96 434.25 463.96 434.53C463.94 435.49 464.12 436.44 464.47 437.34C464.82 438.23 465.34 439.05 466.01 439.74C466.67 440.43 467.47 440.99 468.35 441.37C469.22 441.76 470.17 441.97 471.13 441.99C470.43 441.72 469.77 441.34 469.18 440.87C468.59 440.4 468.08 439.84 467.65 439.22C467.23 438.59 466.9 437.91 466.69 437.19C466.47 436.46 466.36 435.71 466.37 434.96L466.37 434.96Z" />
	<path id="Layer" class="shp6" d="M454.11 423.5C453.53 423.93 452.59 423.67 452.01 422.89C451.42 422.12 451.41 421.15 451.99 420.71C452.57 420.27 453.51 420.54 454.09 421.31C454.68 422.08 454.68 423.06 454.11 423.5Z" />
</svg>