<?xml version="1.0" encoding="utf-8"?>
<!-- Generator: Adobe Illustrator 16.0.0, SVG Export Plug-In . SVG Version: 6.00 Build 0)  -->
<!DOCTYPE svg PUBLIC "-//W3C//DTD SVG 1.1//EN" "http://www.w3.org/Graphics/SVG/1.1/DTD/svg11.dtd">
<svg xmlns="http://www.w3.org/2000/svg" width="69.915" height="69.915" viewBox="0 0 69.915 69.915">
  <g id="Group_1" data-name="Group 1" transform="translate(-34.907 -64.955)">
    <path id="Path_11" data-name="Path 11" d="M28.063,2827H41.818a28.187,28.187,0,0,1,28.1,28.1v13.755a28.157,28.157,0,0,1-28.1,28.063H28.063A28.15,28.15,0,0,1,0,2868.852V2855.1A28.179,28.179,0,0,1,28.063,2827Z" transform="translate(34.907 -2762.045)" fill="#de0404" fill-rule="evenodd"/>
    <path id="Path_12" data-name="Path 12" d="M30.551,2827H36.5a30.62,30.62,0,0,1,30.517,30.551v5.944A30.62,30.62,0,0,1,36.5,2894.046H30.551A30.65,30.65,0,0,1,0,2863.5v-5.944A30.65,30.65,0,0,1,30.551,2827Z" transform="translate(34.907 -2762.045)" fill="red" fill-rule="evenodd"/>
    <path id="Path_31" data-name="Path 31" d="M522.627,3468.767a4.294,4.294,0,0,0-3.041-3.042c-2.661-.726-13.409-.726-13.409-.726s-10.748,0-13.444.726a4.354,4.354,0,0,0-3.041,3.042,49.7,49.7,0,0,0,0,16.52,4.355,4.355,0,0,0,3.041,3.042c2.7.726,13.444.726,13.444.726s10.748,0,13.409-.691a4.3,4.3,0,0,0,3.041-3.042,47.561,47.561,0,0,0,0-16.554Zm-19.872,13.409,8.916-5.149-8.916-5.149Z" transform="translate(-437.193 -3377.996)" fill="#fefefe" fill-rule="evenodd"/>
  </g>
</svg>
